<?xml version="1.0" standalone="no"?><!DOCTYPE svg PUBLIC "-//W3C//DTD SVG 1.1//EN" "http://www.w3.org/Graphics/SVG/1.1/DTD/svg11.dtd"><svg t="1536655484239" class="icon" style="" viewBox="0 0 1024 1024" version="1.1" xmlns="http://www.w3.org/2000/svg" p-id="6942" xmlns:xlink="http://www.w3.org/1999/xlink" width="200" height="200"><defs><style type="text/css"></style></defs><path d="M614.049722 718.643384c-5.13802 0-9.3039-4.16588-9.3039-9.3039L604.745822 368.960213c0-5.13802 4.16588-9.302877 9.3039-9.302877 5.136997 0 9.302877 4.164856 9.302877 9.302877l0 340.378248C623.352599 714.476481 619.186719 718.643384 614.049722 718.643384z" p-id="6943"></path><path d="M409.949254 718.643384c-5.13802 0-9.302877-4.16588-9.302877-9.3039L400.646378 368.960213c0-5.13802 4.164856-9.302877 9.302877-9.302877s9.302877 4.164856 9.302877 9.302877l0 340.378248C419.252131 714.476481 415.087275 718.643384 409.949254 718.643384z" p-id="6944"></path><path d="M735.17336 895.641587 288.824593 895.641587c-42.645263 0-77.340459-34.712593-77.340459-77.381391L211.484134 379.853307c0-5.13802 4.164856-9.302877 9.302877-9.302877 5.13802 0 9.302877 4.164856 9.302877 9.302877l0 438.406888c0 32.409131 26.349111 58.776661 58.734706 58.776661l446.348768 0c32.387641 0 58.735729-26.367531 58.735729-58.776661L793.90909 383.373481c0-5.13802 4.16588-9.302877 9.302877-9.302877s9.302877 4.164856 9.302877 9.302877l0 434.886715C812.514843 860.930017 777.819646 895.641587 735.17336 895.641587z" p-id="6945"></path><path d="M880.346741 292.25932 143.653259 292.25932c-5.13802 0-9.302877-4.164856-9.302877-9.302877s4.164856-9.301853 9.302877-9.301853l736.693482 0c5.136997 0 9.301853 4.163833 9.301853 9.301853S885.482715 292.25932 880.346741 292.25932z" p-id="6946"></path><path d="M267.086499 290.992467c-5.13802 0-9.302877-4.163833-9.302877-9.302877L257.783623 178.346921c0-42.664705 34.691103-77.376275 77.332273-77.376275l353.770256 0c42.639123 0 77.327156 34.710546 77.327156 77.376275l0 103.20657c0 5.13802-4.163833 9.302877-9.302877 9.302877-5.136997 0-9.301853-4.164856-9.301853-9.302877L747.608577 178.346921c0-32.406061-26.342971-58.770522-58.72345-58.770522L335.115895 119.576399c-32.382525 0-58.727543 26.364461-58.727543 58.770522l0 103.34267C276.389376 286.828634 272.22452 290.992467 267.086499 290.992467z" p-id="6947"></path></svg>