<?xml version="1.0" standalone="no"?><!DOCTYPE svg PUBLIC "-//W3C//DTD SVG 1.1//EN" "http://www.w3.org/Graphics/SVG/1.1/DTD/svg11.dtd"><svg class="icon" width="200px" height="200.00px" viewBox="0 0 1024 1024" version="1.1" xmlns="http://www.w3.org/2000/svg"><path d="M587.8 891H436.2V694.1c0-16.9 13.7-30.5 30.5-30.5h90.5c16.9 0 30.5 13.7 30.5 30.5V891zM360.4 643.6v323.1h303.1V643.6c0-30.8-25-55.8-55.8-55.8H416.2c-30.8 0-55.8 25-55.8 55.8z" fill="#8CF6FB" /><path d="M840.4 966.7H183.6c-27.9 0-50.5-22.6-50.5-50.5V486.8H82.5c-21.3 0-40.4-13.4-47.6-33.5-7.2-20.1-1-42.5 15.4-56.1L479.9 43.6c18.7-15.3 45.6-15.3 64.2 0l429.5 353.7c16.5 13.6 22.6 36 15.4 56.1-7.2 20.1-26.2 33.5-47.6 33.5h-50.5v429.5c0 27.7-22.6 50.3-50.5 50.3z m-606.3-101h555.8V436.2c0-17.2 8.6-32.4 21.7-41.5L512 148 212.4 394.7c13.1 9.1 21.7 24.3 21.7 41.5v429.5z" fill="#3C2DCB" /></svg>