<?xml version="1.0" standalone="no"?><!DOCTYPE svg PUBLIC "-//W3C//DTD SVG 1.1//EN" "http://www.w3.org/Graphics/SVG/1.1/DTD/svg11.dtd"><svg class="icon" width="200px" height="200.00px" viewBox="0 0 1024 1024" version="1.1" xmlns="http://www.w3.org/2000/svg"><path d="M339.027027 318.27027m-318.27027 0a318.27027 318.27027 0 1 0 636.54054 0 318.27027 318.27027 0 1 0-636.54054 0Z" fill="#8CF6FB" /><path d="M853.794595 871.783784H170.205405C88.562162 873.167568 22.140541 808.12973 20.756757 726.486486c0-55.351351 33.210811-106.551351 83.027027-130.075675V408.216216C103.783784 182.659459 286.443243 0 512 0S920.216216 182.659459 920.216216 408.216216v188.194595c49.816216 23.524324 83.027027 74.724324 83.027027 130.075675-1.383784 81.643243-67.805405 146.681081-149.448648 145.297298z m22.14054-218.637838c-15.221622-4.151351-24.908108-17.989189-24.908108-33.210811V408.216216C851.027027 221.405405 698.810811 69.189189 512 69.189189S172.972973 221.405405 172.972973 408.216216v211.718919c0 15.221622-11.07027 29.059459-24.908108 33.210811C113.47027 661.448649 89.945946 691.891892 89.945946 726.486486c1.383784 42.897297 35.978378 77.491892 80.259459 76.108109h684.972973c42.897297 1.383784 78.875676-33.210811 80.25946-76.108109-1.383784-34.594595-24.908108-65.037838-59.502703-73.34054z" fill="#3C2DCB" /><path d="M671.135135 871.783784c0 84.410811-67.805405 152.216216-152.216216 152.216216s-152.216216-67.805405-152.216216-152.216216h304.432432z m-152.216216 83.027027c45.664865 0 83.027027-37.362162 83.027027-83.027027H435.891892c0 45.664865 37.362162 83.027027 83.027027 83.027027z" fill="#D098FF" /></svg>