<?xml version="1.0" standalone="no"?><!DOCTYPE svg PUBLIC "-//W3C//DTD SVG 1.1//EN" "http://www.w3.org/Graphics/SVG/1.1/DTD/svg11.dtd"><svg t="1536288683592" class="icon" style="" viewBox="0 0 1024 1024" version="1.1" xmlns="http://www.w3.org/2000/svg" p-id="2380" xmlns:xlink="http://www.w3.org/1999/xlink" width="128" height="128"><defs><style type="text/css"></style></defs><path d="M265.017886 601.3684c5.910617 5.13802 14.874779 4.51278 20.015869-1.401929 5.130857-5.90243 4.51585-14.875802-1.396813-20.016893l-13.519921-11.752672 13.519921-11.752672c5.912663-5.140067 6.52767-14.113439 1.396813-20.016893-5.14109-5.91471-14.105253-6.540973-20.015869-1.401929l-16.529465 14.369266-16.529465-14.369266c-5.910617-5.13802-14.874779-4.511757-20.015869 1.401929-5.130857 5.90243-4.51585 14.876826 1.396813 20.016893l13.518898 11.752672-13.518898 11.752672c-5.912663 5.140067-6.52767 14.113439-1.396813 20.016893 5.14109 5.91471 14.105253 6.540973 20.015869 1.401929l16.529465-14.369266L265.017886 601.3684z" p-id="2381" fill="#6699cc"></path><path d="M605.833085 536.428366c-5.14109-5.91471-14.105253-6.540973-20.015869-1.401929l-16.529465 14.369266-16.529465-14.369266c-5.910617-5.13802-14.874779-4.511757-20.015869 1.401929-5.130857 5.90243-4.51585 14.876826 1.396813 20.016893l13.519921 11.752672-13.519921 11.752672c-5.912663 5.140067-6.52767 14.113439-1.396813 20.016893 5.14109 5.91471 14.105253 6.540973 20.015869 1.401929l16.529465-14.369266 16.529465 14.369266c5.910617 5.13802 14.874779 4.51278 20.015869-1.401929 5.130857-5.90243 4.51585-14.875802-1.396813-20.016893l-13.518898-11.752672 13.518898-11.752672C610.349959 551.305191 610.964966 542.330796 605.833085 536.428366z" p-id="2382" fill="#6699cc"></path><path d="M540.682249 736.252437c-13.114692 0-25.545816 4.450359-35.598776 12.363585-1.035586 0.64366-1.998517 1.419326-2.859118 2.356674-0.060375 0.054235-0.12689 0.100284-0.187265 0.154519-0.084934 0.077771-0.143263 0.171915-0.226151 0.25071-0.013303 0.016373-0.031722 0.028653-0.046049 0.045025-5.710049 6.834662-14.087856 10.840906-23.144116 10.840906-7.574512 0-14.680351-2.791579-20.190855-7.770987-0.109494-0.099261-0.237407-0.162706-0.349971-0.257873-0.005117-0.00614-0.008186-0.014326-0.013303-0.020466-10.884908-13.026688-26.963095-20.716834-44.26618-20.716834-14.462387 0-28.124548 5.367241-38.645159 14.874779-0.353041 0.319272-0.62524 0.689708-0.937348 1.035586-0.751107 0.588401-1.457188 1.252527-2.093684 2.013867-5.710049 6.834662-14.087856 10.840906-23.144116 10.840906-7.574512 0-14.680351-2.791579-20.190855-7.770987-0.110517-0.099261-0.23843-0.162706-0.350994-0.257873-0.005117-0.00614-0.008186-0.014326-0.013303-0.020466-10.884908-13.026688-26.963095-20.716834-44.265156-20.716834-14.462387 0-28.125571 5.367241-38.646182 14.874779-5.63944 5.096065-6.079462 13.799284-0.983397 19.437701 5.096065 5.63944 13.799284 6.079462 19.437701 0.983397 5.510504-4.979408 12.616342-7.770987 20.190855-7.770987 9.05626 0 17.433044 4.007267 23.143093 10.840906 0.636496 0.76134 1.342578 1.426489 2.093684 2.013867 0.312108 0.345877 0.584308 0.717338 0.937348 1.036609 10.520611 9.507538 24.183795 14.873756 38.645159 14.873756 17.303085 0 33.381271-7.690146 44.26618-20.716834 0.005117-0.00614 0.008186-0.014326 0.014326-0.020466 0.11154-0.095167 0.240477-0.158612 0.349971-0.257873 5.510504-4.979408 12.615319-7.770987 20.190855-7.770987 9.05626 0 17.433044 4.007267 23.144116 10.840906 0.636496 0.76134 1.342578 1.425466 2.093684 2.013867 0.313132 0.345877 0.584308 0.717338 0.938372 1.036609 10.520611 9.507538 24.183795 14.873756 38.645159 14.873756 16.286941 0 31.431873-6.877641 42.237987-18.542308 5.458315-4.780887 12.411681-7.468089 19.823488-7.468089 9.05626 0 17.433044 4.006244 23.144116 10.840906 4.874007 5.832845 13.552667 6.610558 19.385513 1.736551 5.831822-4.874007 6.609535-13.552667 1.736551-19.385513C574.063521 743.943606 557.985334 736.252437 540.682249 736.252437z" p-id="2383" fill="#6699cc"></path><path d="M954.307731 343.931167c-9.324366-1.216711-19.87056-4.045129-19.87056-4.045129-26.549679-6.977925-55.665811-32.346709-69.617567-60.477396-13.950733-28.127617-42.828434-61.984726-42.828434-61.984726-21.918195-21.13332-31.702026-25.247011-51.900044-24.133653-20.202111 1.11438-25.490557 19.955494-25.490557 19.955494l-52.865022 128.766712-20.325931 47.671743c-64.448848-63.700811-153.043628-103.06433-250.860445-103.06433-197.029422 0-356.757287 159.589718-356.757287 356.458481 0 61.012585 15.370059 119.828133 44.254923 172.087357 3.217275 5.820566 10.544147 7.930623 16.364713 4.714372 5.820566-3.217275 7.930623-10.544147 4.713348-16.364713-26.926256-48.714492-41.249473-103.524818-41.249473-160.435992 0-183.562712 148.941194-332.373946 332.673775-332.373946 183.732581 0 332.673775 148.811234 332.673775 332.373946 0 48.91506-10.57587 96.312556-30.721699 139.701762-4.749164 10.228969-10.018168 20.205181-15.782451 29.892821-3.400446 5.715165-1.524726 13.105482 4.191462 16.505929 5.715165 3.40147 13.105482 1.524726 16.505929-4.190439 6.182816-10.391674 11.834536-21.093411 16.929578-32.066323 21.614274-46.551222 32.961716-97.407494 32.961716-149.844773 0-84.971253-29.803793-162.957419-79.470983-224.204341l1.099031 1.090844 33.426297-80.878029c6.878664-11.516288 17.007349-14.611789 17.007349-14.611789 22.827915-5.785773 37.256532 9.04398 37.256532 9.04398 21.096481 14.155395 34.890648 41.904389 79.977519 50.731428 45.088918 8.822946 79.502705-18.646686 88.788186-27.961842C966.827883 344.81428 954.307731 343.931167 954.307731 343.931167z" p-id="2384" fill="#6699cc"></path></svg>