<?xml version="1.0" standalone="no"?><!DOCTYPE svg PUBLIC "-//W3C//DTD SVG 1.1//EN" "http://www.w3.org/Graphics/SVG/1.1/DTD/svg11.dtd"><svg class="icon" width="200px" height="189.63px" viewBox="0 0 1080 1024" version="1.1" xmlns="http://www.w3.org/2000/svg"><path d="M342.817391 341.333333m-341.333333 0a341.333333 341.333333 0 1 0 682.666667 0 341.333333 341.333333 0 1 0-682.666667 0Z" fill="#8CF6FB" /><path d="M1078.910145 264.162319v2.968116l-89.043478 445.217391c-10.388406 57.878261-53.426087 118.724638-124.66087 118.724638H391.791304c-72.718841 0-115.756522-60.846377-124.660869-120.208696 0 0-89.043478-583.234783-89.043478-584.71884C178.086957 97.947826 154.342029 74.202899 126.144928 74.202899h-89.043479C16.324638 74.202899 0 57.878261 0 37.101449S16.324638 0 37.101449 0h89.043479c68.266667 0 123.176812 54.910145 126.144927 121.692754l89.043478 577.29855c1.484058 5.936232 10.388406 57.878261 51.942029 57.878261h473.414493c31.165217 0 48.973913-34.133333 51.942029-57.878261V697.507246l89.043478-443.733333c1.484058-10.388406-1.484058-20.776812-7.42029-29.681159-11.872464-11.872464-28.197101-17.808696-44.521739-16.324638H482.318841c-20.776812 0-37.101449-16.324638-37.10145-37.101449S463.026087 133.565217 482.318841 133.565217h470.446376c37.101449-1.484058 74.202899 13.356522 99.431884 41.553624 22.26087 25.228986 32.649275 57.878261 26.713044 89.043478z" fill="#3C2DCB" /><path d="M491.223188 905.275362c32.649275 0 59.362319 26.713043 59.362319 59.362319s-26.713043 59.362319-59.362319 59.362319-59.362319-26.713043-59.362318-59.362319 26.713043-59.362319 59.362318-59.362319z m296.811595 0c32.649275 0 59.362319 26.713043 59.362318 59.362319s-26.713043 59.362319-59.362318 59.362319-59.362319-26.713043-59.362319-59.362319 26.713043-59.362319 59.362319-59.362319z" fill="#D098FF" /></svg>