<?xml version="1.0" standalone="no"?><!DOCTYPE svg PUBLIC "-//W3C//DTD SVG 1.1//EN" "http://www.w3.org/Graphics/SVG/1.1/DTD/svg11.dtd"><svg class="icon" width="200px" height="161.01px" viewBox="0 0 1272 1024" version="1.1" xmlns="http://www.w3.org/2000/svg"><path d="M34.832573 976.222789h41.805059a23.888605 23.888605 0 1 1 0 47.777211h-41.805059a23.888605 23.888605 0 0 1 0-47.777211z m1101.861923 0h98.540497a23.888605 23.888605 0 0 1 0 47.777211h-98.540497a23.888605 23.888605 0 0 1 0-47.777211z m-955.544215 0h862.975869a23.888605 23.888605 0 0 1 0 47.777211h-862.975869a23.888605 23.888605 0 0 1 0-47.777211z" fill="#261D50" /><path d="M10.943967 143.331632h1248.179631v520.278895a74.651892 74.651892 0 0 1-74.651891 74.651892h-1098.875848a74.651892 74.651892 0 0 1-74.651892-74.651892V143.331632z" fill="#FFFFFF" /><path d="M86.596195 11.556113h1097.875512a74.651892 74.651892 0 0 1 74.651891 74.651892V158.262011H11.944303V86.208005a74.651892 74.651892 0 0 1 74.651892-74.651892z" fill="#72C69C" /><path d="M364.301232 210.518335l104.512649 0 0 59.721513-104.512649 0 0-59.721513Z" fill="#FDD838" /><path d="M291.142378 312.044908l104.512649 0 0 59.721513-104.512649 0 0-59.721513Z" fill="#FDD838" /><path d="M364.301232 421.03667l104.512649 0 0 59.721513-104.512649 0 0-59.721513Z" fill="#FDD838" /><path d="M437.460086 312.044908l104.512649 0 0 59.721513-104.512649 0 0-59.721513Z" fill="#FDD838" /><path d="M401.627178 616.624626l468.813881 0 0 59.721514-468.813881 0 0-59.721514Z" fill="#00B7D6" /><path d="M1022.730918 406.106291l194.094919 0 0 74.651892-194.094919 0 0-74.651892Z" fill="#FDD838" /><path d="M71.665816 71.665816l104.512649 0 0 50.763287-104.512649 0 0-50.763287Z" fill="#FDD838" /><path d="M1095.889772 71.665816l104.512648 0 0 50.763287-104.512648 0 0-50.763287Z" fill="#FF6660" /><path d="M527.042356 383.710724h-74.651892a26.874681 26.874681 0 0 1-26.874681-26.874681v-29.860757a26.874681 26.874681 0 0 1 26.874681-26.874681h74.651892a26.874681 26.874681 0 0 1 26.874681 26.874681v29.860757a26.874681 26.874681 0 0 1-26.874681 26.874681z m-74.651892-59.721514a2.986076 2.986076 0 0 0-2.986075 2.986076v29.860757a2.986076 2.986076 0 0 0 2.986075 2.986076h74.651892a2.986076 2.986076 0 0 0 2.986076-2.986076v-29.860757a2.986076 2.986076 0 0 0-2.986076-2.986076zM600.20121 492.702486h-74.651892a26.874681 26.874681 0 0 1-26.874681-26.874681v-29.860757a26.874681 26.874681 0 0 1 26.874681-26.874681h74.651892a26.874681 26.874681 0 0 1 26.874681 26.874681v29.860757a26.874681 26.874681 0 0 1-26.874681 26.874681z m-74.651892-59.721513a2.986076 2.986076 0 0 0-2.986075 2.986075v29.860757a2.986076 2.986076 0 0 0 2.986075 2.986076h74.651892a2.986076 2.986076 0 0 0 2.986076-2.986076v-29.860757a2.986076 2.986076 0 0 0-2.986076-2.986075zM746.518918 282.184151h-74.651892a26.874681 26.874681 0 0 1-26.874681-26.874681v-29.860757a26.874681 26.874681 0 0 1 26.874681-26.874681h74.651892a26.874681 26.874681 0 0 1 26.874681 26.874681v29.860757a26.874681 26.874681 0 0 1-26.874681 26.874681z m-74.651892-59.721513a2.986076 2.986076 0 0 0-2.986075 2.986075v29.860757a2.986076 2.986076 0 0 0 2.986075 2.986076h74.651892a2.986076 2.986076 0 0 0 2.986076-2.986076v-29.860757a2.986076 2.986076 0 0 0-2.986076-2.986075zM673.360064 383.710724h-74.651892a26.874681 26.874681 0 0 1-26.874681-26.874681v-29.860757a26.874681 26.874681 0 0 1 26.874681-26.874681h74.651892a26.874681 26.874681 0 0 1 26.874681 26.874681v29.860757a26.874681 26.874681 0 0 1-26.874681 26.874681z m-74.651892-59.721514a2.986076 2.986076 0 0 0-2.986075 2.986076v29.860757a2.986076 2.986076 0 0 0 2.986075 2.986076h74.651892a2.986076 2.986076 0 0 0 2.986076-2.986076v-29.860757a2.986076 2.986076 0 0 0-2.986076-2.986076zM746.518918 492.702486h-74.651892a26.874681 26.874681 0 0 1-26.874681-26.874681v-29.860757a26.874681 26.874681 0 0 1 26.874681-26.874681h74.651892a26.874681 26.874681 0 0 1 26.874681 26.874681v29.860757a26.874681 26.874681 0 0 1-26.874681 26.874681z m-74.651892-59.721513a2.986076 2.986076 0 0 0-2.986075 2.986075v29.860757a2.986076 2.986076 0 0 0 2.986075 2.986076h74.651892a2.986076 2.986076 0 0 0 2.986076-2.986076v-29.860757a2.986076 2.986076 0 0 0-2.986076-2.986075zM892.836626 282.184151h-74.651892a26.874681 26.874681 0 0 1-26.874681-26.874681v-29.860757a26.874681 26.874681 0 0 1 26.874681-26.874681h74.651892a26.874681 26.874681 0 0 1 26.874681 26.874681v29.860757a26.874681 26.874681 0 0 1-26.874681 26.874681z m-74.651892-59.721513a2.986076 2.986076 0 0 0-2.986075 2.986075v29.860757a2.986076 2.986076 0 0 0 2.986075 2.986076h74.651892a2.986076 2.986076 0 0 0 2.986076-2.986076v-29.860757a2.986076 2.986076 0 0 0-2.986076-2.986075zM819.677772 383.710724h-74.651892a26.874681 26.874681 0 0 1-26.874681-26.874681v-29.860757a26.874681 26.874681 0 0 1 26.874681-26.874681h74.651892a26.874681 26.874681 0 0 1 26.874681 26.874681v29.860757a26.874681 26.874681 0 0 1-26.874681 26.874681z m-74.651892-59.721514a2.986076 2.986076 0 0 0-2.986075 2.986076v29.860757a2.986076 2.986076 0 0 0 2.986075 2.986076h74.651892a2.986076 2.986076 0 0 0 2.986076-2.986076v-29.860757a2.986076 2.986076 0 0 0-2.986076-2.986076zM892.836626 492.702486h-74.651892a26.874681 26.874681 0 0 1-26.874681-26.874681v-29.860757a26.874681 26.874681 0 0 1 26.874681-26.874681h74.651892a26.874681 26.874681 0 0 1 26.874681 26.874681v29.860757a26.874681 26.874681 0 0 1-26.874681 26.874681z m-74.651892-59.721513a2.986076 2.986076 0 0 0-2.986075 2.986075v29.860757a2.986076 2.986076 0 0 0 2.986075 2.986076h74.651892a2.986076 2.986076 0 0 0 2.986076-2.986076v-29.860757a2.986076 2.986076 0 0 0-2.986076-2.986075zM1039.154334 282.184151h-74.651892a26.874681 26.874681 0 0 1-26.874681-26.874681v-29.860757a26.874681 26.874681 0 0 1 26.874681-26.874681h74.651892a26.874681 26.874681 0 0 1 26.874681 26.874681v29.860757a26.874681 26.874681 0 0 1-26.874681 26.874681z m-74.651892-59.721513a2.986076 2.986076 0 0 0-2.986075 2.986075v29.860757a2.986076 2.986076 0 0 0 2.986075 2.986076h74.651892a2.986076 2.986076 0 0 0 2.986076-2.986076v-29.860757a2.986076 2.986076 0 0 0-2.986076-2.986075zM965.99548 383.710724h-74.651892a26.874681 26.874681 0 0 1-26.874681-26.874681v-29.860757a26.874681 26.874681 0 0 1 26.874681-26.874681h74.651892a26.874681 26.874681 0 0 1 26.874681 26.874681v29.860757a26.874681 26.874681 0 0 1-26.874681 26.874681z m-74.651892-59.721514a2.986076 2.986076 0 0 0-2.986075 2.986076v29.860757a2.986076 2.986076 0 0 0 2.986075 2.986076h74.651892a2.986076 2.986076 0 0 0 2.986076-2.986076v-29.860757a2.986076 2.986076 0 0 0-2.986076-2.986076zM1185.472042 282.184151h-74.651892a26.874681 26.874681 0 0 1-26.874681-26.874681v-29.860757a26.874681 26.874681 0 0 1 26.874681-26.874681h74.651892a26.874681 26.874681 0 0 1 26.874681 26.874681v29.860757a26.874681 26.874681 0 0 1-26.874681 26.874681z m-74.651892-59.721513a2.986076 2.986076 0 0 0-2.986075 2.986075v29.860757a2.986076 2.986076 0 0 0 2.986075 2.986076h74.651892a2.986076 2.986076 0 0 0 2.986076-2.986076v-29.860757a2.986076 2.986076 0 0 0-2.986076-2.986075zM1194.430269 383.710724h-98.540497a26.874681 26.874681 0 0 1-26.874681-26.874681v-29.860757a26.874681 26.874681 0 0 1 26.874681-26.874681h98.540497a26.874681 26.874681 0 0 1 26.874681 26.874681v29.860757a26.874681 26.874681 0 0 1-26.874681 26.874681z m-98.540497-59.721514a2.986076 2.986076 0 0 0-2.986076 2.986076v29.860757a2.986076 2.986076 0 0 0 2.986076 2.986076h98.540497a2.986076 2.986076 0 0 0 2.986076-2.986076v-29.860757a2.986076 2.986076 0 0 0-2.986076-2.986076zM1185.472042 134.373405h-74.651892a26.874681 26.874681 0 0 1-26.874681-26.874681V86.596195a26.874681 26.874681 0 0 1 26.874681-26.874682h74.651892a26.874681 26.874681 0 0 1 26.874681 26.874682v20.902529a26.874681 26.874681 0 0 1-26.874681 26.874681z m-74.651892-50.763286a2.986076 2.986076 0 0 0-2.986075 2.986076v20.902529a2.986076 2.986076 0 0 0 2.986075 2.986076h74.651892a2.986076 2.986076 0 0 0 2.986076-2.986076V86.596195a2.986076 2.986076 0 0 0-2.986076-2.986076zM1039.154334 134.373405h-74.651892a26.874681 26.874681 0 0 1-26.874681-26.874681V86.596195a26.874681 26.874681 0 0 1 26.874681-26.874682h74.651892a26.874681 26.874681 0 0 1 26.874681 26.874682v20.902529a26.874681 26.874681 0 0 1-26.874681 26.874681z m-74.651892-50.763286a2.986076 2.986076 0 0 0-2.986075 2.986076v20.902529a2.986076 2.986076 0 0 0 2.986075 2.986076h74.651892a2.986076 2.986076 0 0 0 2.986076-2.986076V86.596195a2.986076 2.986076 0 0 0-2.986076-2.986076zM892.836626 134.373405h-74.651892a26.874681 26.874681 0 0 1-26.874681-26.874681V86.596195a26.874681 26.874681 0 0 1 26.874681-26.874682h74.651892a26.874681 26.874681 0 0 1 26.874681 26.874682v20.902529a26.874681 26.874681 0 0 1-26.874681 26.874681z m-74.651892-50.763286a2.986076 2.986076 0 0 0-2.986075 2.986076v20.902529a2.986076 2.986076 0 0 0 2.986075 2.986076h74.651892a2.986076 2.986076 0 0 0 2.986076-2.986076V86.596195a2.986076 2.986076 0 0 0-2.986076-2.986076zM746.518918 134.373405h-74.651892a26.874681 26.874681 0 0 1-26.874681-26.874681V86.596195a26.874681 26.874681 0 0 1 26.874681-26.874682h74.651892a26.874681 26.874681 0 0 1 26.874681 26.874682v20.902529a26.874681 26.874681 0 0 1-26.874681 26.874681z m-74.651892-50.763286a2.986076 2.986076 0 0 0-2.986075 2.986076v20.902529a2.986076 2.986076 0 0 0 2.986075 2.986076h74.651892a2.986076 2.986076 0 0 0 2.986076-2.986076V86.596195a2.986076 2.986076 0 0 0-2.986076-2.986076zM307.565794 134.373405h-74.651892a26.874681 26.874681 0 0 1-26.874681-26.874681V86.596195a26.874681 26.874681 0 0 1 26.874681-26.874682h74.651892a26.874681 26.874681 0 0 1 26.874681 26.874682v20.902529a26.874681 26.874681 0 0 1-26.874681 26.874681z m-74.651892-50.763286a2.986076 2.986076 0 0 0-2.986075 2.986076v20.902529a2.986076 2.986076 0 0 0 2.986075 2.986076h74.651892a2.986076 2.986076 0 0 0 2.986076-2.986076V86.596195a2.986076 2.986076 0 0 0-2.986076-2.986076zM161.248086 134.373405H86.596195a26.874681 26.874681 0 0 1-26.874682-26.874681V86.596195a26.874681 26.874681 0 0 1 26.874682-26.874682h74.651891a26.874681 26.874681 0 0 1 26.874681 26.874682v20.902529a26.874681 26.874681 0 0 1-26.874681 26.874681zM86.596195 83.610119a2.986076 2.986076 0 0 0-2.986076 2.986076v20.902529a2.986076 2.986076 0 0 0 2.986076 2.986076h74.651891a2.986076 2.986076 0 0 0 2.986076-2.986076V86.596195a2.986076 2.986076 0 0 0-2.986076-2.986076zM600.20121 134.373405h-74.651892a26.874681 26.874681 0 0 1-26.874681-26.874681V86.596195a26.874681 26.874681 0 0 1 26.874681-26.874682h74.651892a26.874681 26.874681 0 0 1 26.874681 26.874682v20.902529a26.874681 26.874681 0 0 1-26.874681 26.874681z m-74.651892-50.763286a2.986076 2.986076 0 0 0-2.986075 2.986076v20.902529a2.986076 2.986076 0 0 0 2.986075 2.986076h74.651892a2.986076 2.986076 0 0 0 2.986076-2.986076V86.596195a2.986076 2.986076 0 0 0-2.986076-2.986076zM453.883502 134.373405h-74.651892a26.874681 26.874681 0 0 1-26.874681-26.874681V86.596195a26.874681 26.874681 0 0 1 26.874681-26.874682h74.651892a26.874681 26.874681 0 0 1 26.874681 26.874682v20.902529a26.874681 26.874681 0 0 1-26.874681 26.874681z m-74.651892-50.763286a2.986076 2.986076 0 0 0-2.986075 2.986076v20.902529a2.986076 2.986076 0 0 0 2.986075 2.986076h74.651892a2.986076 2.986076 0 0 0 2.986076-2.986076V86.596195a2.986076 2.986076 0 0 0-2.986076-2.986076zM1194.430269 485.237297H1045.126485a26.874681 26.874681 0 0 1-26.874681-26.874681v-29.860757a26.874681 26.874681 0 0 1 26.874681-26.874681h149.303784a26.874681 26.874681 0 0 1 26.874681 26.874681v29.860757a26.874681 26.874681 0 0 1-26.874681 26.874681z m-149.303784-59.721514a2.986076 2.986076 0 0 0-2.986075 2.986076v29.860757a2.986076 2.986076 0 0 0 2.986075 2.986075h149.303784a2.986076 2.986076 0 0 0 2.986076-2.986075v-29.860757a2.986076 2.986076 0 0 0-2.986076-2.986076zM1194.430269 586.76387H994.363199a26.874681 26.874681 0 0 1-26.874681-26.874681v-29.860757a26.874681 26.874681 0 0 1 26.874681-26.874681h200.06707a26.874681 26.874681 0 0 1 26.874681 26.874681v29.860757a26.874681 26.874681 0 0 1-26.874681 26.874681z m-200.06707-59.721514a2.986076 2.986076 0 0 0-2.986076 2.986076v29.860757a2.986076 2.986076 0 0 0 2.986076 2.986075h200.06707a2.986076 2.986076 0 0 0 2.986076-2.986075v-29.860757a2.986076 2.986076 0 0 0-2.986076-2.986076zM855.51068 688.290443H416.557556a26.874681 26.874681 0 0 1-26.874681-26.874682v-29.860756a26.874681 26.874681 0 0 1 26.874681-26.874681h438.953124a26.874681 26.874681 0 0 1 26.874681 26.874681v29.860756a26.874681 26.874681 0 0 1-26.874681 26.874682z m-438.953124-59.721514a2.986076 2.986076 0 0 0-2.986075 2.986076v29.860756a2.986076 2.986076 0 0 0 2.986075 2.986076h438.953124a2.986076 2.986076 0 0 0 2.986076-2.986076v-29.860756a2.986076 2.986076 0 0 0-2.986076-2.986076zM185.136692 383.710724H86.596195a26.874681 26.874681 0 0 1-26.874682-26.874681v-29.860757a26.874681 26.874681 0 0 1 26.874682-26.874681h98.540497a26.874681 26.874681 0 0 1 26.874681 26.874681v29.860757a26.874681 26.874681 0 0 1-26.874681 26.874681z m-98.540497-59.721514a2.986076 2.986076 0 0 0-2.986076 2.986076v29.860757a2.986076 2.986076 0 0 0 2.986076 2.986076h98.540497a2.986076 2.986076 0 0 0 2.986075-2.986076v-29.860757a2.986076 2.986076 0 0 0-2.986075-2.986076zM235.899978 485.237297H86.596195a26.874681 26.874681 0 0 1-26.874682-26.874681v-29.860757a26.874681 26.874681 0 0 1 26.874682-26.874681h149.303783a26.874681 26.874681 0 0 1 26.874681 26.874681v29.860757a26.874681 26.874681 0 0 1-26.874681 26.874681zM86.596195 425.515783a2.986076 2.986076 0 0 0-2.986076 2.986076v29.860757a2.986076 2.986076 0 0 0 2.986076 2.986075h149.303783a2.986076 2.986076 0 0 0 2.986076-2.986075v-29.860757a2.986076 2.986076 0 0 0-2.986076-2.986076zM286.663265 586.76387H86.596195a26.874681 26.874681 0 0 1-26.874682-26.874681v-29.860757a26.874681 26.874681 0 0 1 26.874682-26.874681h200.06707a26.874681 26.874681 0 0 1 26.874681 26.874681v29.860757a26.874681 26.874681 0 0 1-26.874681 26.874681zM86.596195 527.042356a2.986076 2.986076 0 0 0-2.986076 2.986076v29.860757a2.986076 2.986076 0 0 0 2.986076 2.986075h200.06707a2.986076 2.986076 0 0 0 2.986075-2.986075v-29.860757a2.986076 2.986076 0 0 0-2.986075-2.986076zM453.883502 492.702486h-74.651892a26.874681 26.874681 0 0 1-26.874681-26.874681v-29.860757a26.874681 26.874681 0 0 1 26.874681-26.874681h74.651892a26.874681 26.874681 0 0 1 26.874681 26.874681v29.860757a26.874681 26.874681 0 0 1-26.874681 26.874681z m-74.651892-59.721513a2.986076 2.986076 0 0 0-2.986075 2.986075v29.860757a2.986076 2.986076 0 0 0 2.986075 2.986076h74.651892a2.986076 2.986076 0 0 0 2.986076-2.986076v-29.860757a2.986076 2.986076 0 0 0-2.986076-2.986075zM600.20121 282.184151h-74.651892a26.874681 26.874681 0 0 1-26.874681-26.874681v-29.860757a26.874681 26.874681 0 0 1 26.874681-26.874681h74.651892a26.874681 26.874681 0 0 1 26.874681 26.874681v29.860757a26.874681 26.874681 0 0 1-26.874681 26.874681z m-74.651892-59.721513a2.986076 2.986076 0 0 0-2.986075 2.986075v29.860757a2.986076 2.986076 0 0 0 2.986075 2.986076h74.651892a2.986076 2.986076 0 0 0 2.986076-2.986076v-29.860757a2.986076 2.986076 0 0 0-2.986076-2.986075zM380.724648 383.710724h-74.651892a26.874681 26.874681 0 0 1-26.874681-26.874681v-29.860757a26.874681 26.874681 0 0 1 26.874681-26.874681h74.651892a26.874681 26.874681 0 0 1 26.874681 26.874681v29.860757a26.874681 26.874681 0 0 1-26.874681 26.874681z m-74.651892-59.721514a2.986076 2.986076 0 0 0-2.986075 2.986076v29.860757a2.986076 2.986076 0 0 0 2.986075 2.986076h74.651892a2.986076 2.986076 0 0 0 2.986076-2.986076v-29.860757a2.986076 2.986076 0 0 0-2.986076-2.986076zM453.883502 282.184151h-74.651892a26.874681 26.874681 0 0 1-26.874681-26.874681v-29.860757a26.874681 26.874681 0 0 1 26.874681-26.874681h74.651892a26.874681 26.874681 0 0 1 26.874681 26.874681v29.860757a26.874681 26.874681 0 0 1-26.874681 26.874681z m-74.651892-59.721513a2.986076 2.986076 0 0 0-2.986075 2.986075v29.860757a2.986076 2.986076 0 0 0 2.986075 2.986076h74.651892a2.986076 2.986076 0 0 0 2.986076-2.986076v-29.860757a2.986076 2.986076 0 0 0-2.986076-2.986075zM161.248086 282.184151H86.596195a26.874681 26.874681 0 0 1-26.874682-26.874681v-29.860757a26.874681 26.874681 0 0 1 26.874682-26.874681h74.651891a26.874681 26.874681 0 0 1 26.874681 26.874681v29.860757a26.874681 26.874681 0 0 1-26.874681 26.874681z m-74.651891-59.721513a2.986076 2.986076 0 0 0-2.986076 2.986075v29.860757a2.986076 2.986076 0 0 0 2.986076 2.986076h74.651891a2.986076 2.986076 0 0 0 2.986076-2.986076v-29.860757a2.986076 2.986076 0 0 0-2.986076-2.986075zM307.565794 282.184151h-74.651892a26.874681 26.874681 0 0 1-26.874681-26.874681v-29.860757a26.874681 26.874681 0 0 1 26.874681-26.874681h74.651892a26.874681 26.874681 0 0 1 26.874681 26.874681v29.860757a26.874681 26.874681 0 0 1-26.874681 26.874681z m-74.651892-59.721513a2.986076 2.986076 0 0 0-2.986075 2.986075v29.860757a2.986076 2.986076 0 0 0 2.986075 2.986076h74.651892a2.986076 2.986076 0 0 0 2.986076-2.986076v-29.860757a2.986076 2.986076 0 0 0-2.986076-2.986075z" fill="#261D50" /><path d="M1185.472042 749.504994H86.596195a86.700707 86.700707 0 0 1-86.596195-86.596195V86.596195A86.700707 86.700707 0 0 1 86.596195 0h781.172326a11.944303 11.944303 0 0 1 0 23.888605H86.596195a62.707589 62.707589 0 0 0-62.70759 62.70759v576.312604a62.707589 62.707589 0 0 0 62.70759 62.707589h1098.875847a62.707589 62.707589 0 0 0 62.707589-62.707589V86.596195a62.707589 62.707589 0 0 0-62.707589-62.70759h-38.147117a11.944303 11.944303 0 0 1 0-23.888605H1185.472042a86.700707 86.700707 0 0 1 86.596194 86.596195v576.312604a86.700707 86.700707 0 0 1-86.596194 86.596195zM1073.180666 23.888605h-146.138543a11.944303 11.944303 0 0 1 0-23.888605h146.138543a11.944303 11.944303 0 0 1 0 23.888605z" fill="#261D50" /></svg>