<?xml version="1.0" standalone="no"?><!DOCTYPE svg PUBLIC "-//W3C//DTD SVG 1.1//EN" "http://www.w3.org/Graphics/SVG/1.1/DTD/svg11.dtd"><svg class="icon" width="200px" height="200.00px" viewBox="0 0 1024 1024" version="1.1" xmlns="http://www.w3.org/2000/svg"><path d="M508.4 514m-428.6 0a428.6 428.6 0 1 0 857.2 0 428.6 428.6 0 1 0-857.2 0Z" fill="#F69802" /><path d="M508.4 962.5c-60.6 0-119.3-11.9-174.6-35.3-53.4-22.6-101.4-54.9-142.6-96.1C150 790 117.7 742 95.1 688.6 71.7 633.3 59.8 574.5 59.8 514s11.9-119.3 35.3-174.6C117.7 286 150 238 191.2 196.8s89.2-73.5 142.6-96.1c55.3-23.4 114.1-35.3 174.6-35.3 60.6 0 119.3 11.9 174.6 35.3 53.4 22.6 101.4 54.9 142.6 96.1 41.2 41.2 73.5 89.2 96.1 142.6 23.4 55.3 35.3 114 35.3 174.6 0 60.6-11.9 119.3-35.3 174.6-22.6 53.4-54.9 101.4-96.1 142.6-41.2 41.2-89.2 73.5-142.6 96.1-55.3 23.4-114 35.2-174.6 35.2z m0-857.1C283.1 105.4 99.8 288.7 99.8 514s183.3 408.6 408.6 408.6C733.7 922.5 917 739.2 917 514S733.7 105.4 508.4 105.4z"  /><path d="M545.6 955.4c-56.4-67-91.4-155.5-104.2-262.8-10-84.6-6.2-181.2 11.2-287.1 29.5-179.4 87.3-321.7 89.8-327.7l37 15.2c-0.6 1.4-58.7 144.7-87.4 319.8-26.1 159.1-32.7 378 84.2 517l-30.6 25.6z"  /><path d="M79.8 514H937" fill="#F69802" /><path d="M79.8 494H937v40H79.8z"  /><path d="M762.7 857.3c-57.2-70-93.7-149.7-108.5-236.9-11.8-69.4-9.8-143.5 5.8-220.3 26.4-130 82.4-221.9 84.8-225.7l34.1 21c-0.9 1.5-55.1 91-79.9 214-32.9 163.3-1 305.5 94.7 422.6l-31 25.3zM189.5 819.9l-31-25.3c86.2-105.6 115-233.7 85.3-380.8-22.4-111.4-71.6-192.4-72.1-193.2l34.1-21c2.2 3.5 53 86.9 77 204.9 14.2 69.7 16 137 5.3 200.1-13.4 79.3-46.6 151.7-98.6 215.3z"  /></svg>