<?xml version="1.0" standalone="no"?><!DOCTYPE svg PUBLIC "-//W3C//DTD SVG 1.1//EN" "http://www.w3.org/Graphics/SVG/1.1/DTD/svg11.dtd"><svg class="icon" width="200px" height="200.00px" viewBox="0 0 1024 1024" version="1.1" xmlns="http://www.w3.org/2000/svg"><path d="M38.552351 985.764283h33.456242a19.117853 19.117853 0 0 1 0 38.235705H38.552351a19.117853 19.117853 0 0 1 0-38.235705zM918.523216 985.764283h66.912484a19.117853 19.117853 0 1 1 0 38.235705h-66.912484a19.117853 19.117853 0 0 1 0-38.235705zM839.709868 985.764283h-6.05797A59.74329 59.74329 0 0 1 784.148608 1012.05133H395.817224a59.74329 59.74329 0 0 1-49.50329-26.287047H149.67487a19.117853 19.117853 0 0 0-19.117853 19.990104c0.454049 10.311692 9.367748 18.245601 19.691389 18.245601H840.307301a19.117853 19.117853 0 0 0 19.117852-19.990105c-0.477946-10.311692-9.391645-18.245601-19.715285-18.2456z" fill="#22234C" /><path d="M342.633748 9.558926l496.383098 0 0 995.323209-496.383098 0 0-995.323209Z" fill="#FFFFFF" /><path d="M173.572186 450.858711h126.655774V947.76755H173.572186a59.74329 59.74329 0 0 1-59.74329-59.74329V510.602001a59.74329 59.74329 0 0 1 59.74329-59.74329z" fill="#FFFFFF" /><path d="M187.313143 918.851798a30.469078 30.469078 0 0 1-30.469078-30.469078 30.469078 30.469078 0 0 1 30.469078-30.469078H245.264134V450.858711h-71.691948c-32.990245 0-59.74329 26.287048-59.74329 58.715705v382.823053C113.828896 924.826127 140.581941 951.113174 173.572186 951.113174h71.691948v-32.261376z" fill="#6CB692" /><path d="M300.22796 957.087503H173.572186a69.385857 69.385857 0 0 1-69.302216-69.302216V510.207695a69.385857 69.385857 0 0 1 69.302216-69.302216h126.655774v19.117853H173.572186a50.184363 50.184363 0 0 0-50.184363 50.184363v377.577592a50.184363 50.184363 0 0 0 50.184363 50.184364h126.655774z" fill="#261D50" /><path d="M293.656199 922.436395h-106.343056a34.053675 34.053675 0 0 1 0-68.10735h106.343056v19.117853h-106.343056a14.935822 14.935822 0 0 0 0 29.871645h106.343056z" fill="#261D50" /><path d="M769.810219 48.989498h-42.91958a35.845974 35.845974 0 0 1-35.34413 41.820303h-203.127186a35.845974 35.845974 0 0 1-35.34413-41.820303H408.960748a23.897316 23.897316 0 0 0-23.897316 23.897316v693.691287l408.644103-523.040554V72.886814a23.897316 23.897316 0 0 0-23.897316-23.897316zM793.707535 323.115609L385.063432 846.156163v89.579089l408.644103-523.052503v-89.56714zM551.424597 965.451564H769.810219a23.897316 23.897316 0 0 0 23.897316-23.897316V655.336095z" fill="#00B7D6" /><path d="M436.574097 142.18903a9.558926 9.558926 0 0 1 9.558926 9.558926v76.471411a9.558926 9.558926 0 0 1-19.117853 0v-76.471411a9.558926 9.558926 0 0 1 9.558927-9.558926zM436.550199 106.343056a9.558926 9.558926 0 0 1 0 19.117853 9.558926 9.558926 0 0 1 0-19.117853zM487.821891 9.558926h203.127185a35.845974 35.845974 0 0 1 0 71.691948H487.821891a35.845974 35.845974 0 0 1 0-71.691948z" fill="#FFFFFF" /><path d="M690.949076 90.809801H487.821891a45.4049 45.4049 0 0 1 0-90.809801h203.127185a45.4049 45.4049 0 0 1 0 90.809801zM487.821891 19.117853a26.287048 26.287048 0 0 0 0 52.574095h203.127185a26.287048 26.287048 0 0 0 0-52.574095z" fill="#261D50" /><path d="M778.174279 1015.635927H401.791553a69.385857 69.385857 0 0 1-69.302216-69.302216V415.442889a9.558926 9.558926 0 0 1 19.117853 0V946.333711a50.184363 50.184363 0 0 0 50.184363 50.184364h376.382726a50.184363 50.184363 0 0 0 50.184364-50.184364V69.302216a50.184363 50.184363 0 0 0-50.184364-50.184363H401.791553a50.184363 50.184363 0 0 0-50.184363 50.184363v190.784222a9.558926 9.558926 0 0 1-19.117853 0V69.302216a69.385857 69.385857 0 0 1 69.302216-69.302216h376.382726a69.385857 69.385857 0 0 1 69.302217 69.302216v877.031495a69.385857 69.385857 0 0 1-69.302217 69.302216zM342.048263 387.602516a9.558926 9.558926 0 0 1-9.558926-9.558926v-74.08168a9.558926 9.558926 0 0 1 19.117853 0v74.08168a9.558926 9.558926 0 0 1-9.558927 9.558926z" fill="#261D50" /><path d="M763.83589 35.845974h-38.343244a35.845974 35.845974 0 0 1 0 19.117853H763.83589a23.897316 23.897316 0 0 1 23.897316 23.897316v856.718776a23.897316 23.897316 0 0 1-23.897316 23.897316H414.935077a23.897316 23.897316 0 0 1-23.897316-23.897316V78.861143a23.897316 23.897316 0 0 1 23.897316-23.897316h38.343243a35.845974 35.845974 0 0 1 0-19.117853H414.935077a43.015169 43.015169 0 0 0-43.015169 43.015169v856.718776a43.015169 43.015169 0 0 0 43.015169 43.015169h348.900813a43.015169 43.015169 0 0 0 43.015168-43.015169V78.861143a43.015169 43.015169 0 0 0-43.015168-43.015169z" fill="#261D50" /></svg>