<?xml version="1.0" standalone="no"?><!DOCTYPE svg PUBLIC "-//W3C//DTD SVG 1.1//EN" "http://www.w3.org/Graphics/SVG/1.1/DTD/svg11.dtd"><svg class="icon" width="200px" height="200.00px" viewBox="0 0 1024 1024" version="1.1" xmlns="http://www.w3.org/2000/svg"><path d="M363.3 548.6a287.4 249.8 0 1 0 574.8 0 287.4 249.8 0 1 0-574.8 0Z" fill="#F8C573" /><path d="M650.7 818.5c-81.6 0-158.4-27.7-216.3-78.1-28.4-24.7-50.8-53.6-66.5-85.8-16.3-33.6-24.6-69.2-24.6-106s8.3-72.5 24.6-106c15.7-32.2 38-61 66.5-85.8 57.9-50.4 134.8-78.1 216.3-78.1s158.4 27.7 216.3 78.1c28.4 24.7 50.8 53.6 66.5 85.8 16.3 33.6 24.6 69.2 24.6 106s-8.3 72.5-24.6 106c-15.7 32.2-38 61-66.5 85.8-57.9 50.3-134.7 78.1-216.3 78.1z m0-499.7c-147.4 0-267.4 103.1-267.4 229.8s120 229.8 267.4 229.8 267.4-103.1 267.4-229.8-120-229.8-267.4-229.8z"  /><path d="M766.6 399.7m-28.4 0a28.4 28.4 0 1 0 56.8 0 28.4 28.4 0 1 0-56.8 0Z"  /><path d="M824.9 603.4m-28.4 0a28.4 28.4 0 1 0 56.8 0 28.4 28.4 0 1 0-56.8 0Z"  /><path d="M650.7 655.4m-28.4 0a28.4 28.4 0 1 0 56.8 0 28.4 28.4 0 1 0-56.8 0Z"  /><path d="M109.260736 588.337588a249.8 287.4 66.839 1 0 528.473002-226.078142 249.8 287.4 66.839 1 0-528.473002 226.078142Z" fill="#F8C573" /><path d="M345.3 751.5c-32.5 0-64.6-4.9-95.2-14.8-35.9-11.5-67.8-29.3-94.8-52.7-28.2-24.4-49.8-54-64.3-87.8-14.6-33.8-21-69.9-19.2-107.1 1.7-35.8 10.9-71.1 27.4-105 33.4-69.1 93.2-124.8 168.2-156.9 75-32.1 156.6-36.8 229.6-13.3 35.9 11.5 67.8 29.3 94.8 52.7 28.2 24.4 49.8 54 64.3 87.8s20.9 69.9 19.1 107.1c-1.7 35.8-10.9 71.1-27.4 105-33.4 69.1-93.2 124.8-168.2 156.9-43.5 18.6-89.3 28.1-134.3 28.1z m56.5-512.3c-39.7 0-80.1 8.3-118.7 24.8-66.1 28.3-118.7 77.1-147.9 137.5-28.8 59.4-31.5 123-7.5 179 23.9 56 71.7 97.9 134.6 118.2 63.9 20.6 135.5 16.3 201.6-12s118.7-77.1 147.9-137.5c28.8-59.4 31.5-123 7.5-179-23.9-56-71.7-97.9-134.6-118.2-26.6-8.6-54.6-12.8-82.9-12.8z"  /><path d="M510.8 340.3m-28.4 0a28.4 28.4 0 1 0 56.8 0 28.4 28.4 0 1 0-56.8 0Z"  /><path d="M363.3 399.7m-28.4 0a28.4 28.4 0 1 0 56.8 0 28.4 28.4 0 1 0-56.8 0Z"  /><path d="M216.2 506.2m-28.4 0a28.4 28.4 0 1 0 56.8 0 28.4 28.4 0 1 0-56.8 0Z"  /><path d="M521.5 485.5m-28.4 0a28.4 28.4 0 1 0 56.8 0 28.4 28.4 0 1 0-56.8 0Z"  /><path d="M359.9 603.4m-28.4 0a28.4 28.4 0 1 0 56.8 0 28.4 28.4 0 1 0-56.8 0Z"  /></svg>