<?xml version="1.0" standalone="no"?><!DOCTYPE svg PUBLIC "-//W3C//DTD SVG 1.1//EN" "http://www.w3.org/Graphics/SVG/1.1/DTD/svg11.dtd"><svg class="icon" width="200px" height="200.00px" viewBox="0 0 1024 1024" version="1.1" xmlns="http://www.w3.org/2000/svg"><path d="M515.9 628.5m-219.8 0a219.8 219.8 0 1 0 439.6 0 219.8 219.8 0 1 0-439.6 0Z" fill="#FFFFFF" /><path d="M861.3 504.1c22.2-23.4 46.9-31.3 66.7-24.3v-40.3c0-8.6-4.4-15.6-9.7-15.6H834c-5.3 0-9.7 7-9.7 15.6v128.7c0 1.5 0.2 2.9 0.4 4.3 6.5-25.3 19.1-49.9 36.6-68.4zM173.5 504.7c-22.2-23.4-46.9-31.3-66.7-24.3v-40.3c0-8.6 4.4-15.6 9.7-15.6h84.3c5.3 0 9.7 7 9.7 15.6v128.7c0 1.5-0.2 2.9-0.4 4.3-6.5-25.3-19.1-50-36.6-68.4z"  /><path d="M775.7 833.7H256c-26.4 0-48-21.6-48-48v-411c0-26.4 21.6-48 48-48h519.7c26.4 0 48 21.6 48 48v411c0 26.4-21.6 48-48 48z" fill="#C8C7A8" /><path d="M775.7 853.7H256c-37.5 0-68-30.5-68-68v-411c0-37.5 30.5-68 68-68h519.7c37.5 0 68 30.5 68 68v411c0 37.5-30.5 68-68 68zM256 346.7c-15.4 0-28 12.6-28 28v411c0 15.4 12.6 28 28 28h519.7c15.4 0 28-12.6 28-28v-411c0-15.4-12.6-28-28-28H256z"  /><path d="M210.9 309.5c0-77.9 136.5-141.1 304.9-141.1s304.9 63.2 304.9 141.1" fill="#C8C7A8" /><path d="M840.8 309.5h-40c0-29-28.3-58.8-77.7-81.6-55-25.5-128.6-39.5-207.2-39.5s-152.2 14-207.2 39.5c-49.4 22.9-77.7 52.6-77.7 81.6h-40c0-45.9 35.8-87.8 100.9-117.9 60.2-27.8 139.7-43.2 224-43.2 84.3 0 163.9 15.3 224 43.2 65.1 30.1 100.9 72 100.9 117.9z"  /><path d="M864.5 385.2H167.3c-6.6 0-12-5.4-12-12v-54c0-6.6 5.4-12 12-12h697.2c6.6 0 12 5.4 12 12v54c0 6.6-5.4 12-12 12z" fill="#4DC9C4" /><path d="M864.5 405.2H167.3c-17.6 0-32-14.4-32-32v-54c0-17.6 14.4-32 32-32h697.2c17.6 0 32 14.4 32 32v54c0 17.7-14.4 32-32 32z m-689.2-40h681.2v-38H175.3v38z"  /><path d="M459.2 813.8V612.6c0-31.2 25.5-56.7 56.7-56.7 31.2 0 56.7 25.5 56.7 56.7v201.2" fill="#EBD077" /><path d="M592.6 813.8h-40V612.6c0-20.2-16.5-36.7-36.7-36.7s-36.7 16.5-36.7 36.7v201.2h-40V612.6c0-42.3 34.4-76.7 76.7-76.7 42.3 0 76.7 34.4 76.7 76.7v201.2zM488.2 103.7h55.3v64.8h-55.3z"  /><path d="M580.9 126.7H450.8c-6.6 0-12-5.4-12-12V81.2c0-6.6 5.4-12 12-12h130.1c6.6 0 12 5.4 12 12v33.4c0 6.7-5.4 12.1-12 12.1zM664.8 851.9H718v37h-53.2zM307.2 852.9h53.2v37h-53.2z"  /></svg>