<?xml version="1.0" standalone="no"?><!DOCTYPE svg PUBLIC "-//W3C//DTD SVG 1.1//EN" "http://www.w3.org/Graphics/SVG/1.1/DTD/svg11.dtd"><svg class="icon" width="200px" height="200.00px" viewBox="0 0 1024 1024" version="1.1" xmlns="http://www.w3.org/2000/svg"><path d="M 508.5 514.9 m -134 0 a 134 134 0 1 0 268 0 a 134 134 0 1 0 -268 0 Z" fill="#ffffff" /><path d="M 661.6 577.6 V 140.4 c 0 -56 -45.8 -101.8 -101.8 -101.8 H 456.2 c -56 0 -101.8 45.8 -101.8 101.8 v 437.2 l 163.2 280.2 l 144 -280.2 Z" fill="#81b3f8" /><path d="M 518.6 899.4 L 334.3 583 V 140.4 c 0 -67.2 54.7 -121.8 121.8 -121.8 h 103.6 c 67.2 0 121.8 54.7 121.8 121.8 v 442 l -162.9 317 Z M 374.3 572.2 l 142.1 244 l 125.2 -243.4 V 140.4 c 0 -45.1 -36.7 -81.8 -81.8 -81.8 H 456.2 c -45.1 0 -81.8 36.7 -81.8 81.8 v 431.8 Z"  /><path d="M 354.4 557.3 l 90.8 -99.8 l 66.7 99.8 l 75.9 -99.8 l 73.8 99.8 V 603 L 517.2 846.9 L 354.4 603 Z" fill="#ffdf94" /><path d="M 518.2 884.4 L 334.4 609.1 v -59.5 l 113.3 -124.5 l 65.3 97.8 l 75.1 -98.7 l 93.6 126.6 v 57.8 L 518.2 884.4 Z M 374.4 597 l 141.8 212.4 l 125.5 -211.8 V 564 l -54.1 -73.1 l -76.8 100.9 l -68 -101.9 l -68.4 75.2 V 597 Z"  /><path d="M 460.5 759.4 l 104.6 0.6 l -49.3 95.3 Z"  /><path d="M 445.2 457.5 V 233.4" fill="#ffdf94" /><path d="M 425.2 233.4 h 40 v 224.1 h -40 Z"  /><path d="M 587.8 457.5 V 233.9" fill="#ffdf94" /><path d="M 567.8 233.9 h 40 v 223.6 h -40 Z"  /><path d="M 674.6 231.1 H 341.3 c -6.6 0 -12 -5.4 -12 -12 V 164 c 0 -6.6 5.4 -12 12 -12 h 333.3 c 6.6 0 12 5.4 12 12 v 55.1 c 0 6.6 -5.4 12 -12 12 Z" fill="#ffff08" /><path d="M 674.6 251.1 H 341.3 c -17.6 0 -32 -14.4 -32 -32 V 164 c 0 -17.6 14.4 -32 32 -32 h 333.3 c 17.6 0 32 14.4 32 32 v 55.1 c 0 17.7 -14.4 32 -32 32 Z m -325.3 -40 h 317.3 V 172 H 349.3 v 39.1 Z"  /></svg>