<?xml version="1.0" standalone="no"?><!DOCTYPE svg PUBLIC "-//W3C//DTD SVG 1.1//EN" "http://www.w3.org/Graphics/SVG/1.1/DTD/svg11.dtd"><svg class="icon" width="200px" height="200.00px" viewBox="0 0 1024 1024" version="1.1" xmlns="http://www.w3.org/2000/svg"><path d="M931.6 579.1C928 502.5 851.3 444 760.5 448.4c-90.8 4.4-161.4 70-157.8 146.6 3.7 76.6 80.3 135.1 171.1 130.7 90.9-4.4 161.5-70 157.8-146.6zM736.2 665c-65.2 3.1-119.8-28.5-121.8-70.6-2-42.2 49.2-78.9 114.4-82s119.8 28.5 121.8 70.6c2.1 42.2-49.2 78.9-114.4 82z" fill="#EACC53" /><path d="M764.3 744.9c-44.6 0-86.9-13.7-120.2-39.1-36.9-28.2-58.3-67.2-60.3-109.9-2.1-42.7 15.5-83.7 49.5-115.2 33.1-30.7 78-48.9 126.4-51.3 48.4-2.3 94.8 11.5 130.7 38.9 36.9 28.2 58.3 67.2 60.3 109.9 2.1 42.7-15.5 83.7-49.5 115.2-33.1 30.7-78 48.9-126.4 51.3-3.5 0.2-7 0.2-10.5 0.2zM665 673.8c25.8 20.5 60.9 33 99.4 33 2.9 0 5.7-0.1 8.6-0.2 39.4-1.9 75.8-16.5 102.3-41.1 25.6-23.8 38.9-54.2 37.4-85.5-1.5-31.3-17.6-60.3-45.4-81.5-28.8-22-66.3-33-105.8-31.1-39.4 1.9-75.8 16.5-102.3 41.1-0.7 0.6-1.4 1.3-2 1.9 20.8-9.9 45.2-15.9 70.8-17.1 35.2-1.7 68.9 5.7 95.1 20.9 28.8 16.7 45.4 40.8 46.7 67.9 1.3 27.1-12.9 52.6-39.9 72-24.6 17.6-57.5 28.2-92.6 29.9-25.8 1.3-50.6-2.3-72.3-10.2z m72.9-142.6c-2.7 0-5.4 0.1-8.1 0.2-27.9 1.3-53.6 9.5-72.3 22.8-9.4 6.7-25 20.7-24.1 39.2 0.9 18.5 17.8 31 27.7 36.7 19.9 11.5 46.2 17.1 74.1 15.8 27.9-1.3 53.6-9.5 72.3-22.8 9.4-6.7 25-20.7 24.1-39.2-0.9-18.5-17.8-31-27.7-36.7-17.9-10.4-41.1-16-66-16z"  /><path d="M719.1 854.3H270.2c-13.2 0-24-10.8-24-24V365.7c0-13.2 10.8-24 24-24h448.9c13.2 0 24 10.8 24 24v464.7c0 13.1-10.8 23.9-24 23.9z" fill="#EACC53" /><path d="M720.2 873.4H269.1c-23.1 0-41.9-18.8-41.9-41.9v-467c0-23.1 18.8-41.9 41.9-41.9h451.1c23.1 0 41.9 18.8 41.9 41.9v467c0 23.1-18.8 41.9-41.9 41.9zM269.1 360.7c-2.1 0-3.8 1.7-3.8 3.8v467c0 2.1 1.7 3.8 3.8 3.8h451.1c2.1 0 3.8-1.7 3.8-3.8v-467c0-2.1-1.7-3.8-3.8-3.8H269.1z"  /><path d="M519.9 760.2H469c-3.3 0-6-2.7-6-6V534.8c0-3.3 2.7-6 6-6h50.9c3.3 0 6 2.7 6 6v219.4c0 3.3-2.7 6-6 6z" fill="#FFFFFF" /><path d="M520.2 779.2h-51.5c-13.7 0-24.8-11.1-24.8-24.8v-220c0-13.7 11.1-24.8 24.8-24.8h51.5c13.7 0 24.8 11.1 24.8 24.8v220c0 13.7-11.1 24.8-24.8 24.8z m-38.1-38h24.8V547.8h-24.8v193.4z"  /><path d="M646.6 760.2h-50.9c-3.3 0-6-2.7-6-6V534.8c0-3.3 2.7-6 6-6h50.9c3.3 0 6 2.7 6 6v219.4c0 3.3-2.7 6-6 6z" fill="#FFFFFF" /><path d="M646.9 779.2h-51.5c-13.7 0-24.8-11.1-24.8-24.8v-220c0-13.7 11.1-24.8 24.8-24.8h51.5c13.7 0 24.8 11.1 24.8 24.8v220c0 13.7-11.1 24.8-24.8 24.8z m-38.1-38h24.8V547.8h-24.8v193.4z"  /><path d="M393.6 760.2h-50.9c-3.3 0-6-2.7-6-6V534.8c0-3.3 2.7-6 6-6h50.9c3.3 0 6 2.7 6 6v219.4c0 3.3-2.7 6-6 6z" fill="#FFFFFF" /><path d="M393.9 779.2h-51.5c-13.7 0-24.8-11.1-24.8-24.8v-220c0-13.7 11.1-24.8 24.8-24.8h51.5c13.7 0 24.8 11.1 24.8 24.8v220c-0.1 13.7-11.2 24.8-24.8 24.8z m-38.2-38h24.8V547.8h-24.8v193.4z"  /><path d="M727.9 202.4H261.4c-48.8 0-88.7 39.9-88.7 88.7v59.1c0 47.4 54.1 124.2 84.7 88.6 21-24.4 1.5-60.6 35.2-73.4 21.1-8 45 2.4 61.8 17.4 16.8 15 23.6 50.9 46 49.4 18.9-1.3 24.5-29 36.7-43.5 15.2-18 32.5-37.2 55.8-40.3 24.9-3.4 48.2 12.9 65.3 31.2 17.1 18.3 32.1 67.3 52.8 53.2 31.9-21.7 19.4-82.9 57.9-83.6 22.6-0.4 43.5 14.2 56.1 33 10.9 16.4 3.8 44 20.2 55 34.3 23 71.3-44.1 71.3-86.9V291c0.1-48.7-39.8-88.6-88.6-88.6z" fill="#F5ECDA" /><path d="M239.2 466.9c-5.3 0-10.8-1-16.3-3.1-23.4-8.7-40.5-33.1-48.6-46.9-13.1-22.4-20.7-46.7-20.7-66.8V291c0-59.4 48.3-107.7 107.7-107.7h466.6c59.4 0 107.7 48.3 107.7 107.7v59.1c0 36.1-22 88-53.6 104.8-15.9 8.5-32.7 7.7-47.3-2.1-16.3-11-19.1-29.4-21.1-42.8-1-6.9-2.1-13.9-4.4-17.5-10.1-15.1-25.8-24.7-39.9-24.5-5.8 0.1-8.5 3.5-15.3 26.1-5.5 18.1-12.4 40.7-32.2 54.2-9.7 6.6-18.9 6.4-24.8 5.1-17.9-4-28.7-22.6-39.2-40.5-4.7-8-9.5-16.2-13.5-20.5-9.9-10.6-29.4-28-48.8-25.3-16 2.2-29.9 17.2-43.8 33.8-2.8 3.3-5.7 8.8-8.5 14.1-7.7 14.6-18.3 34.6-41.5 36.1-8.4 0.6-20.9-1.4-32.5-13.8-6.2-6.7-10.9-14.8-15.4-22.6-4-7-8.1-14.2-12.1-17.7-10.9-9.7-28.5-19.1-42.4-13.8-7.5 2.8-8.8 5.6-11 22.9-1.7 13.5-3.8 30.4-16.5 45.2-8.9 10.2-20.3 15.6-32.6 15.6z m22.2-245.5c-38.4 0-69.6 31.2-69.6 69.6v59.1c0 29.1 26.5 71.3 44.5 78 3.1 1.1 4.3 1 6.8-1.9 5.3-6.1 6.3-14.9 7.6-25 2.1-16.9 5.3-42.4 35.2-53.8 25.3-9.6 55.7-1.8 81.3 20.9 8.6 7.6 14.6 18.1 19.8 27.2 3.2 5.6 9.1 15.9 12.2 17.4 2.7-1.4 7.7-10.9 10.4-16 3.8-7.1 7.6-14.4 13-20.8 14.3-17 36-42.6 67.8-46.9 27.4-3.7 55.7 9.1 81.8 37.1 6.9 7.4 12.8 17.5 18.5 27.3 3.3 5.7 8.9 15.3 13.1 20.2 6.5-6.8 10.1-18.5 13.8-30.9 3.4-11.2 6.9-22.7 13.3-32.4 8.9-13.3 21.9-20.5 37.8-20.8h1.1c26.8 0 54 15.8 71.1 41.5 7.1 10.6 8.8 22.5 10.4 33 1 6.4 2.3 15.2 4.6 16.8 2.5 1.7 4.4 2.1 8.2 0.1 16.3-8.7 33.4-45.3 33.4-71.2V291c0-38.4-31.2-69.6-69.6-69.6H261.4z"  /></svg>