<?xml version="1.0" standalone="no"?><!DOCTYPE svg PUBLIC "-//W3C//DTD SVG 1.1//EN" "http://www.w3.org/Graphics/SVG/1.1/DTD/svg11.dtd"><svg class="icon" width="200px" height="200.00px" viewBox="0 0 1024 1024" version="1.1" xmlns="http://www.w3.org/2000/svg"><path d="M 664.8 121.4 c 4.2 18.2 -0.5 33 7.1 74.4 c 2.2 12.1 22.1 28.4 37.1 32.5 c 54.1 14.9 136.2 63.4 123.8 187.2 c 0 0 0 210.5 -148.6 307.9 c 0 0 -165.6 156.3 -476.6 66.5 c 0 0 -78.9 -34 -52.6 -111.4 c 0 0 -3.1 -40.2 168.7 -78.9 c 0 0 195 -20.1 260 -165.6 c 0 0 63.4 -97.5 7.7 -229 c 0 0 -30.9 -89.8 23.2 -92.8 c 0 0 46.3 -7.8 50.2 9.2 Z" fill="#ffef68" /><path d="M 394 837.8 c -61.6 0 -126.1 -9.6 -191.9 -28.6 l -1.2 -0.4 l -1.2 -0.5 c -2.4 -1 -24.3 -10.8 -43.1 -31.6 c -18.3 -20.2 -36.7 -54.3 -21.3 -102.3 c 1.3 -8.3 7 -21.9 27.9 -37 c 29.7 -21.3 82.2 -40.6 156 -57.2 l 1.2 -0.3 l 1.2 -0.1 c 0.4 0 47.4 -5.2 101.1 -27.3 c 70 -28.8 118 -71.4 142.7 -126.6 l 0.6 -1.4 l 0.9 -1.3 c 0.1 -0.2 14.5 -23 22.3 -60.2 c 10.4 -49.5 4.9 -100 -16.3 -150.1 l -0.5 -1.3 c -0.2 -0.6 -5.3 -15.5 -8.1 -33.9 c -4.1 -27.4 -1.2 -48.8 8.8 -63.7 c 6.1 -9.1 17.8 -20.2 39.2 -21.7 c 3.5 -0.5 14.5 -2 26.1 -1.9 c 32.9 0.5 43 14.7 45.7 26.5 c 2.3 9.8 2.4 18.6 2.6 27.9 c 0.2 11.2 0.5 25 4.5 46.9 c 2 4.6 14 14.8 22.8 17.3 c 22.2 6.1 64.3 21.8 96.6 58.9 c 33.6 38.5 47.7 88.5 41.9 148.7 c -0.1 8.2 -1.4 59.4 -19.3 121.9 c -11.3 39.4 -26.9 75.2 -46.4 106.4 c -24.3 39 -54.8 70.7 -90.5 94.5 c -8.3 7.4 -51.3 43.6 -127.4 70 c -48.5 16.8 -100.7 26.3 -155.1 28.2 c -6.4 0.1 -13.1 0.2 -19.8 0.2 Z m -179.3 -66.6 c 67.1 19.2 127 26.4 178.9 26.4 c 67 0 120.9 -11.9 160.3 -25.4 c 76 -26 116.2 -63 116.6 -63.3 l 1.3 -1.2 l 1.4 -0.9 c 137.9 -90.5 139.5 -289.2 139.5 -291.2 v -1 l 0.1 -1 c 11.9 -119.5 -72.4 -155.9 -109.2 -166 c -18.4 -5 -47.3 -25.1 -51.5 -48.2 c -4.6 -25.2 -5 -41.7 -5.3 -53.7 c -0.1 -5.8 -0.2 -10.4 -0.7 -14.7 c -6.3 -1.1 -18.5 -0.8 -28.3 0.9 l -1.1 0.2 l -1.1 0.1 c -6.8 0.4 -8.4 2.8 -9.3 4.1 c -7.5 11.2 -2.7 42.7 3.6 61.6 c 30.5 72.5 26.6 135.3 17.9 175.2 c -8.4 38.6 -22.8 64 -26.6 70.3 c -16.1 35.5 -40.7 66.9 -73.1 93.3 c -25.8 21 -56.5 38.9 -91.4 53.1 c -54.4 22.2 -101.4 28.5 -109.8 29.5 c -123.7 28 -148 55.4 -151.8 61.1 v 0.6 l -1.1 4 c -8.4 24.7 -4.6 45.6 11.6 64 c 11.4 13 25.3 20.4 29.1 22.2 Z m 430.6 -645.3 Z"  /><path d="M 644.4 587.3 l -29.7 -26.8 c 30.5 -33.6 55.6 -73.8 74.7 -119.4 l 36.9 15.5 c -20.8 49.8 -48.4 93.7 -81.9 130.7 Z M 301.1 731.6 c -16.2 0 -25.9 -0.9 -26.8 -1 l -18.1 -1.8 V 611.6 h 40 v 80 c 18.1 0.2 48.3 -0.7 84.5 -7 c 53.7 -9.3 132.1 -32.7 200.3 -91.2 l 26 30.4 c -33.4 28.7 -71.7 52.1 -113.8 69.7 c -33.5 14 -69.6 24.4 -107.1 30.8 c -35.2 5.9 -65 7.3 -85 7.3 Z"  /></svg>