<?xml version="1.0" standalone="no"?><!DOCTYPE svg PUBLIC "-//W3C//DTD SVG 1.1//EN" "http://www.w3.org/Graphics/SVG/1.1/DTD/svg11.dtd"><svg class="icon" width="200px" height="200.00px" viewBox="0 0 1024 1024" version="1.1" xmlns="http://www.w3.org/2000/svg"><path d="M 508.5 514.9 m -134 0 a 134 134 0 1 0 268 0 a 134 134 0 1 0 -268 0 Z" fill="#ffffff" /><path d="M 911.7 339 l -175 -175 c -5.5 -5.5 -12.9 -8.1 -20.1 -7.8 c -0.3 0 -0.7 -0.1 -1 -0.1 h -80.9 c -20.3 40 -68.3 68.2 -124.4 68.2 s -104.1 -28.2 -124.4 -68.2 H 306 c -0.5 0 -0.9 0 -1.4 0.1 c -7.4 -0.4 -14.9 2.2 -20.5 7.8 l -175 175 c -10.5 10.5 -10.5 27.6 0 38.1 l 74 74 c 10.5 10.5 27.6 10.5 38.1 0 l 57.9 -57.9 v 399.1 c 0 14.8 12.1 26.9 26.9 26.9 h 409.7 c 14.8 0 26.9 -12.1 26.9 -26.9 V 394 l 57.1 57.1 c 10.5 10.5 27.6 10.5 38.1 0 l 74 -74 c 10.4 -10.5 10.4 -27.6 -0.1 -38.1 Z" fill="#64c8ff" /><path d="M 715.6 839.2 H 306 c -25.9 0 -46.9 -21.1 -46.9 -46.9 V 441.5 l -23.7 23.7 c -18.3 18.3 -48.1 18.3 -66.4 0 l -74 -74 c -18.3 -18.3 -18.3 -48.1 0 -66.4 l 175 -175 c 9.1 -9.1 21.5 -14 34.4 -13.7 h 94 l 5.6 11 c 17.6 34.8 59.4 57.2 106.5 57.2 s 88.9 -22.5 106.5 -57.2 l 5.6 -11 H 717 c 12.7 -0.2 25 4.8 33.9 13.7 l 175 175 c 8.8 8.8 13.7 20.6 13.7 33.2 c 0 12.6 -4.9 24.3 -13.7 33.2 l -74 74 c -18.3 18.3 -48.1 18.3 -66.4 0 l -22.9 -22.9 v 350 c 0 25.9 -21.1 46.9 -47 46.9 Z M 299.1 344.9 v 447.4 c 0 3.8 3.2 6.9 6.9 6.9 h 409.7 c 3.8 0 6.9 -3.2 6.9 -6.9 V 345.7 l 91.2 91.2 c 1.7 1.7 3.8 2 4.9 2 s 3.2 -0.3 4.9 -2 l 74 -74 c 1.7 -1.7 2 -3.8 2 -4.9 c 0 -1.1 -0.3 -3.2 -2 -4.9 l -175 -175 c -1.8 -1.8 -4 -2 -5.2 -2 h -71.1 c -26.8 41.8 -78.8 68.2 -135.9 68.2 c -57.2 0 -109.1 -26.4 -135.9 -68.2 h -68.8 l -1.1 0.1 l -1.1 -0.1 c -1.2 -0.1 -3.4 0.1 -5.3 2 l -175 175 c -2.7 2.7 -2.7 7.2 0 9.8 l 74 74 c 2.7 2.7 7.2 2.7 9.8 0 l 92.1 -92 Z"  /><path d="M 510.8 332.1 m -27 0 a 27 27 0 1 0 54 0 a 27 27 0 1 0 -54 0 Z" fill="#fff188" /><path d="M 510.8 364.1 c -17.6 0 -32 -14.4 -32 -32 s 14.4 -32 32 -32 s 32 14.4 32 32 s -14.3 32 -32 32 Z m 0 -54 c -12.1 0 -22 9.9 -22 22 s 9.9 22 22 22 s 22 -9.9 22 -22 s -9.9 -22 -22 -22 Z"  /><path d="M 510.8 416 m -27 0 a 27 27 0 1 0 54 0 a 27 27 0 1 0 -54 0 Z" fill="#fff188" /><path d="M 510.8 448 c -17.6 0 -32 -14.4 -32 -32 s 14.4 -32 32 -32 s 32 14.4 32 32 s -14.3 32 -32 32 Z m 0 -54 c -12.1 0 -22 9.9 -22 22 s 9.9 22 22 22 s 22 -9.9 22 -22 s -9.9 -22 -22 -22 Z"  /></svg>