<?xml version="1.0" standalone="no"?><!DOCTYPE svg PUBLIC "-//W3C//DTD SVG 1.1//EN" "http://www.w3.org/Graphics/SVG/1.1/DTD/svg11.dtd"><svg class="icon" width="200px" height="200.00px" viewBox="0 0 1024 1024" version="1.1" xmlns="http://www.w3.org/2000/svg"><path d="M728.2 379.9L567.9 540.3c-29.6 29.6-77.9 29.6-107.5 0L300.1 379.9c-29.6-29.6-29.6-77.9 0-107.5l160.3-160.3c29.6-29.6 77.9-29.6 107.5 0l160.3 160.3c29.6 29.6 29.6 78 0 107.5z" fill="#FFF4E6" /><path d="M514.2 582.4c-25.7 0-49.8-10-67.9-28L286 394.1c-37.4-37.4-37.4-98.3 0-135.8L446.3 98c18.1-18.1 42.2-28 67.9-28 25.7 0 49.8 10 67.9 28l160.3 160.3c37.4 37.4 37.4 98.3 0 135.8L582.1 554.4c-18.1 18.1-42.2 28-67.9 28z m0-472.4c-15 0-29.1 5.8-39.6 16.3L314.2 286.6c-21.8 21.8-21.8 57.4 0 79.2l160.3 160.3c10.5 10.5 24.6 16.3 39.6 16.3s29.1-5.8 39.6-16.3L714 365.8c21.8-21.8 21.8-57.4 0-79.2L553.8 126.3c-10.5-10.5-24.6-16.3-39.6-16.3z"  /><path d="M775.2 714.4s30-243.9 0-325L251 383.7s-25.2 186 0 330.7" fill="#FFB7A4" /><path d="M231.3 717.8c-25.4-146.1-1.2-329.1-0.1-336.8l2.4-17.5 555.6 6 4.8 12.9c13.4 36.2 17.6 103.8 12.5 200.9-3.7 71-11.3 132.8-11.4 133.5l-39.7-4.9c7.7-62.4 22.3-230.4 4.9-302.7l-491.5-5.3c-5.4 49.2-18 192.5 2 307.1l-39.5 6.8z"  /><path d="M235.2 267.6c185.1 25.3 372.8 25.3 558 0 24-3.3 46.7 13.1 50.6 37 1 6.3 2 12.5 3 18.8 3.9 23.8-13.7 46.7-39.1 50.2-194.7 26.6-392.2 26.6-586.9 0-25.4-3.5-43-26.3-39.1-50.2 1-6.3 2-12.5 3-18.8 3.8-23.9 26.5-40.3 50.5-37z" fill="#EACC53" /><path d="M514.2 413.4c-99 0-197.9-6.7-296.1-20.1-17.8-2.4-34-12-44.5-26.2-10.2-13.8-14.3-30.5-11.6-47l3-18.7c5.6-34.3 38.3-58.4 73-53.6 183.3 25 369.2 25 552.6 0 34.7-4.7 67.5 19.3 73 53.6l3 18.8c2.7 16.5-1.4 33.2-11.6 46.9-10.5 14.2-26.8 23.8-44.5 26.2-98.4 13.4-197.4 20.1-296.3 20.1zM229.1 287.1c-12.1 0-22.8 8.7-24.7 20.6l-3 18.7c-1 5.9 0.6 11.9 4.3 16.9 4.2 5.7 10.5 9.4 17.8 10.3 192.9 26.3 388.6 26.3 581.5 0 7.3-1 13.6-4.7 17.8-10.3 3.7-5 5.2-11 4.3-16.8l-3-18.9c-2.1-13-14.7-22.1-28.1-20.3-93.4 12.8-187.6 19.1-281.7 19.1s-188.2-6.4-281.7-19.1c-1.3-0.1-2.4-0.2-3.5-0.2z"  /><path d="M515.4 599.6s24.8-124.9 135.3-99.6c0 0-18.3 150.7-123.9 142.8l-2 77.8h-22.3v-76.3s-77.8 25.3-124.9-138.8c0-0.1 94.2-48.7 137.8 94.1z" fill="#FFF4E6" /><path d="M544.3 740.5h-61.8v-75.4c-9.3-1-20.5-3.8-32.6-10.3-39.3-20.9-70.1-69.3-91.5-143.9l-4.5-15.8 14.6-7.5c1.7-0.9 41.2-20.8 85-2.4 24.8 10.5 45.4 30.7 61.4 60.3 9.9-18.1 24.5-37.4 45.5-51 27.1-17.5 59-22.3 94.9-14.1l17.6 4-2.2 17.9c-0.2 1.7-5.2 41.4-24.2 80.7-11.7 24.1-26.2 43-43.3 56.4-16.9 13.2-35.9 20.9-56.8 23l-2.1 78.1zM402.6 518.4c20.5 61.8 44.7 87.8 62 98.7 17 10.7 29.9 8.4 32 8l5.1-2-5.4-17.7c-13.6-44.4-33.1-72.4-57.9-83.1-13.4-5.7-26.3-5.5-35.8-3.9z m93.7 106.8z m34.9-2.3c63.2 2.5 87.8-70.5 96.1-106.2-17-0.9-31.8 2.8-45 11.3-36.2 23.3-47.1 75-47.2 75.5l-3.9 19.4z"  /><path d="M675.6 703.9H799c31.3 0 56.9 25.6 56.9 56.9 0 31.3-25.6 56.9-56.9 56.9H229.3c-31.3 0-56.9-25.6-56.9-56.9 0-31.3 25.6-56.9 56.9-56.9h119.9" fill="#FFB7A4" /><path d="M799 837.7H229.3c-42.4 0-76.9-34.5-76.9-76.9 0-42.4 34.5-76.9 76.9-76.9h119.9v40H229.3c-20.4 0-36.9 16.6-36.9 36.9s16.6 36.9 36.9 36.9H799c20.4 0 36.9-16.6 36.9-36.9s-16.6-36.9-36.9-36.9H675.6v-40H799c42.4 0 76.9 34.5 76.9 76.9 0 42.4-34.5 76.9-76.9 76.9z"  /></svg>