<?xml version="1.0" standalone="no"?><!DOCTYPE svg PUBLIC "-//W3C//DTD SVG 1.1//EN" "http://www.w3.org/Graphics/SVG/1.1/DTD/svg11.dtd"><svg class="icon" width="200px" height="200.00px" viewBox="0 0 1024 1024" version="1.1" xmlns="http://www.w3.org/2000/svg"><path d="M 216.1 491.1 a 187.2 318.6 0 1 0 374.4 0 a 187.2 318.6 0 1 0 -374.4 0 Z" fill="#ff965c" /><path d="M 403.3 829.7 c -29.6 0 -58 -9.7 -84.6 -28.8 c -24.6 -17.7 -46.5 -42.7 -65.1 -74.4 c -37.1 -63.2 -57.6 -146.8 -57.6 -235.4 s 20.5 -172.2 57.6 -235.4 c 18.6 -31.7 40.5 -56.7 65.1 -74.4 c 26.6 -19.1 55 -28.8 84.6 -28.8 s 58 9.7 84.6 28.8 c 24.6 17.7 46.5 42.7 65.1 74.4 c 37.1 63.2 57.6 146.8 57.6 235.4 S 590.1 663.3 553 726.5 c -18.6 31.7 -40.5 56.7 -65.1 74.4 c -26.6 19.2 -55 28.8 -84.6 28.8 Z m 0 -637.2 c -42.6 0 -83.5 29.6 -115.2 83.5 c -33.6 57.2 -52.1 133.6 -52.1 215.2 s 18.5 158 52.1 215.2 c 31.6 53.8 72.5 83.5 115.2 83.5 s 83.5 -29.6 115.2 -83.5 c 33.6 -57.2 52.1 -133.6 52.1 -215.2 S 552 333.1 518.5 276 c -31.7 -53.8 -72.6 -83.5 -115.2 -83.5 Z"  /><path d="M 434.5 491.5 a 187.2 318.6 0 1 0 374.4 0 a 187.2 318.6 0 1 0 -374.4 0 Z" fill="#ff965c" /><path d="M 621.7 830.1 c -29.6 0 -58 -9.7 -84.6 -28.8 c -24.6 -17.7 -46.5 -42.7 -65.1 -74.4 c -37.1 -63.2 -57.6 -146.8 -57.6 -235.4 s 20.5 -172.2 57.6 -235.4 c 18.6 -31.7 40.5 -56.7 65.1 -74.4 c 26.6 -19.1 55 -28.8 84.6 -28.8 s 58 9.7 84.6 28.8 c 24.6 17.7 46.5 42.7 65.1 74.4 c 37.1 63.2 57.6 146.8 57.6 235.4 s -20.5 172.2 -57.6 235.4 c -18.6 31.7 -40.5 56.7 -65.1 74.4 c -26.6 19.1 -55 28.8 -84.6 28.8 Z m 0 -637.2 c -42.6 0 -83.5 29.6 -115.2 83.5 c -33.6 57.2 -52.1 133.6 -52.1 215.2 s 18.5 158 52.1 215.2 c 31.6 53.8 72.5 83.5 115.2 83.5 c 42.6 0 83.5 -29.6 115.2 -83.5 c 33.6 -57.2 52.1 -133.6 52.1 -215.2 s -18.5 -158 -52.1 -215.2 c -31.6 -53.9 -72.5 -83.5 -115.2 -83.5 Z"  /><path d="M 519.8 332.6 h -11.2 c -19.2 0 -34.8 -15.7 -34.8 -34.8 V 120.9 c 0 -19.2 15.7 -34.8 34.8 -34.8 h 11.2 c 19.2 0 34.8 15.7 34.8 34.8 v 176.9 c 0.1 19.1 -15.6 34.8 -34.8 34.8 Z" fill="#46c373" /><path d="M 519.8 352.6 h -11.2 c -30.2 0 -54.8 -24.6 -54.8 -54.8 V 120.9 c 0 -30.2 24.6 -54.8 54.8 -54.8 h 11.2 c 30.2 0 54.8 24.6 54.8 54.8 v 176.9 c 0.1 30.2 -24.5 54.8 -54.8 54.8 Z m -11.1 -246.5 c -8.2 0 -14.8 6.6 -14.8 14.8 v 176.9 c 0 8.2 6.6 14.8 14.8 14.8 h 11.2 c 8.2 0 14.8 -6.6 14.8 -14.8 V 120.9 c 0 -8.2 -6.6 -14.8 -14.8 -14.8 h -11.2 Z"  /><path d="M 511 555.9 a 187.2 318.6 0 1 0 374.4 0 a 187.2 318.6 0 1 0 -374.4 0 Z" fill="#ff965c" /><path d="M 698.2 894.5 c -29.6 0 -58 -9.7 -84.6 -28.8 c -24.6 -17.7 -46.5 -42.7 -65.1 -74.4 c -37.1 -63.2 -57.6 -146.8 -57.6 -235.4 s 20.5 -172.2 57.6 -235.4 c 18.6 -31.7 40.5 -56.7 65.1 -74.4 c 26.6 -19.1 55 -28.8 84.6 -28.8 s 58 9.7 84.6 28.8 c 24.6 17.7 46.5 42.7 65.1 74.4 c 37.1 63.2 57.6 146.8 57.6 235.4 S 885 728.2 847.8 791.4 c -18.6 31.7 -40.5 56.7 -65.1 74.4 c -26.5 19 -55 28.7 -84.5 28.7 Z m 0 -637.2 c -42.6 0 -83.5 29.6 -115.2 83.5 c -33.6 57.2 -52.1 133.6 -52.1 215.2 s 18.5 158 52.1 215.2 c 31.6 53.8 72.5 83.5 115.2 83.5 c 42.6 0 83.5 -29.6 115.2 -83.5 C 847 714 865.5 637.6 865.5 556 S 847 398 813.4 340.8 c -31.7 -53.9 -72.6 -83.5 -115.2 -83.5 Z"  /><path d="M 138.2 555.9 a 187.2 318.6 0 1 0 374.4 0 a 187.2 318.6 0 1 0 -374.4 0 Z" fill="#ff965c" /><path d="M 325.4 894.5 c -29.6 0 -58 -9.7 -84.6 -28.8 c -24.6 -17.7 -46.5 -42.7 -65.1 -74.4 c -37.1 -63.2 -57.6 -146.8 -57.6 -235.4 s 20.5 -172.2 57.6 -235.4 c 18.6 -31.7 40.5 -56.7 65.1 -74.4 c 26.6 -19.1 55 -28.8 84.6 -28.8 s 58 9.7 84.6 28.8 c 24.6 17.7 46.5 42.7 65.1 74.4 c 37.1 63.2 57.6 146.8 57.6 235.4 S 512.2 728.2 475 791.4 c -18.6 31.7 -40.5 56.7 -65.1 74.4 c -26.5 19 -55 28.7 -84.5 28.7 Z m 0 -637.2 c -42.6 0 -83.5 29.6 -115.2 83.5 c -33.6 57.2 -52.1 133.6 -52.1 215.2 s 18.5 158 52.1 215.2 c 31.6 53.8 72.5 83.5 115.2 83.5 s 83.5 -29.6 115.2 -83.5 c 33.6 -57.2 52.1 -133.6 52.1 -215.2 s -18.5 -158 -52.1 -215.2 c -31.7 -53.9 -72.6 -83.5 -115.2 -83.5 Z"  /><path d="M 349.8 588.1 a 168.3 286.5 0 1 0 336.6 0 a 168.3 286.5 0 1 0 -336.6 0 Z" fill="#ff965c" /><path d="M 518.1 894.5 c -52.3 0 -100.7 -33.3 -136.3 -93.8 c -33.6 -57.1 -52.1 -132.7 -52.1 -212.7 s 18.5 -155.6 52.1 -212.7 c 35.5 -60.5 83.9 -93.8 136.3 -93.8 c 52.3 0 100.7 33.3 136.3 93.8 C 688 432.4 706.5 508 706.5 588 S 688 743.6 654.4 800.7 c -35.5 60.5 -83.9 93.8 -136.3 93.8 Z m 0 -572.9 c -37.6 0 -73.7 26.3 -101.8 74 c -30 51.1 -46.6 119.4 -46.6 192.4 s 16.5 141.3 46.6 192.4 c 28.1 47.7 64.2 74 101.8 74 c 37.6 0 73.7 -26.3 101.8 -74 c 30 -51.1 46.6 -119.4 46.6 -192.4 S 650 446.7 619.9 395.6 c -28.1 -47.7 -64.2 -74 -101.8 -74 Z"  /><path d="M 633.1 655.4 c -2.9 14.3 -6.7 27.8 -11.3 40.5" fill="#ff965c" /><path d="M 635.2 700.8 l -26.8 -9.8 c 4.4 -12.1 8 -25 10.7 -38.4 l 28 5.7 c -3.1 14.8 -7.1 29.1 -11.9 42.5 Z"  /><path d="M 590.6 423.4 c 29.8 37.2 49.1 97.2 49.1 165 c 0 13.8 -0.8 27.3 -2.3 40.4" fill="#ff965c" /><path d="M 651.5 630.4 l -28.4 -3.3 c 1.5 -12.7 2.2 -25.7 2.2 -38.7 c 0 -61.7 -17.2 -120 -46 -156 l 22.3 -17.8 c 33.2 41.5 52.2 104.9 52.2 173.9 c 0.1 14 -0.7 28.1 -2.3 41.9 Z"  /></svg>