<?xml version="1.0" standalone="no"?><!DOCTYPE svg PUBLIC "-//W3C//DTD SVG 1.1//EN" "http://www.w3.org/Graphics/SVG/1.1/DTD/svg11.dtd"><svg class="icon" width="200px" height="200.00px" viewBox="0 0 1024 1024" version="1.1" xmlns="http://www.w3.org/2000/svg"><path d="M828.8 261.6h-69.3v-69.3c0-28.7-23.5-52.2-52.2-52.2-28.7 0-52.2 23.5-52.2 52.2v100.5c-2.5 1.7-4.9 3.7-7.1 5.9l-85.9 85.9c-20.3 20.3-20.3 53.5 0 73.8 20.3 20.3 53.5 20.3 73.8 0l85.9-85.9c2.1-2.1 3.9-4.3 5.6-6.6h101.4c28.7 0 52.2-23.5 52.2-52.2 0-28.6-23.5-52.1-52.2-52.1z" fill="#FFDDC9" /><path d="M599.1 493.6c-18.5 0-37-7-51-21.1-28.1-28.1-28.1-73.9 0-102.1l85.9-85.9 1.2-1.2v-91.1c0-39.8 32.4-72.2 72.2-72.2s72.2 32.4 72.2 72.2v49.3h49.3c39.8 0 72.2 32.4 72.2 72.2s-32.4 72.2-72.2 72.2h-92.1l-0.7 0.7-85.9 85.9c-14.1 14.1-32.6 21.1-51.1 21.1z m108.3-333.4c-17.7 0-32.2 14.4-32.2 32.2v111l-8.6 6c-1.6 1.1-3.1 2.3-4.4 3.6l-85.9 85.9c-12.5 12.5-12.5 32.9 0 45.5 12.5 12.5 32.9 12.5 45.5 0l85.9-85.9c1.2-1.2 2.4-2.6 3.4-4l6-8.4h111.7c17.7 0 32.2-14.4 32.2-32.2s-14.4-32.2-32.2-32.2h-89.3v-89.3c0-17.8-14.4-32.2-32.1-32.2z"  /><path d="M581.5 303.3l141 145.3S559.8 610.1 533.1 758.9c0 0-47.6 185.9-219.6 117.4 0 0-131.3-32.5-181.3-189.4 0 0-41.8-116.2 69.7-185.9 0 0 72.1-39.5 155.7-53.5 0 0 93.4-22.1 223.9-144.2z" fill="#DA7C06" /><path d="M385.1 911.5c-24.5 0-50.5-5.4-78-16.2-7.3-2-39.8-12-77.2-38.6-38.1-27.1-89.3-77.4-116.8-163.5-1.5-4.2-11.6-35.4-7.9-75 3.6-39 21.4-93.9 86-134.2l1-0.6c3.1-1.7 75.5-41.1 161.2-55.5 3.4-0.9 25.2-7.1 59.7-25.4 34.7-18.4 89.7-53 154.7-113.7l14.3-13.4 168.4 173.5-14 13.9c-1.6 1.6-158.6 158.9-183.8 299.6l-0.1 0.7-0.2 0.7c-1 3.8-24.8 93.8-98.9 131.5-21.1 10.8-44 16.2-68.4 16.2zM212 518.2c-40.4 25.4-62.9 60.3-66.9 103.7-3 32.4 5.8 58 5.9 58.2l0.2 0.7c19.2 60.2 53 108.1 100.5 142.3 35.7 25.7 66.3 33.7 66.6 33.8l1.3 0.3 1.2 0.5c44.1 17.6 82.6 18.3 114.6 2 55.5-28.2 76.2-98.1 78.1-105.2C525.4 690 561.8 616.4 621.8 536c29.4-39.4 57-70.4 72.9-87.3l-114-117.5C455.4 443.9 366.1 466 362.2 466.9l-1.3 0.3c-75.7 12.6-142.8 47.7-148.9 51z"  /></svg>