<?xml version="1.0" standalone="no"?><!DOCTYPE svg PUBLIC "-//W3C//DTD SVG 1.1//EN" "http://www.w3.org/Graphics/SVG/1.1/DTD/svg11.dtd"><svg class="icon" width="200px" height="200.00px" viewBox="0 0 1024 1024" version="1.1" xmlns="http://www.w3.org/2000/svg"><path d="M 673.6 131.9 l -252.4 -0.1 c -117.8 0 -213.3 87.2 -213.3 194.7 v 445.3 l 62.1 -69.5 l 55.4 56.7 l 62.7 -57.2 l 47.3 44.9 l 45 -45.9 l 65.5 71 V 361.4 l 119.4 -185.2" fill="#f65064" /><path d="M 187.9 824.3 V 326.6 c 0 -57.7 24.5 -111.9 69 -152.5 c 44 -40.2 102.3 -62.3 164.3 -62.3 l 252.4 0.1 v 40 l -252.4 -0.1 c -106.6 0 -193.3 78.4 -193.3 174.7 v 392.8 l 41.4 -46.4 l 56.9 58.2 l 62.1 -56.7 l 46.6 44.1 l 46 -46.8 l 45 48.8 v -365 l 122.5 -190.1 l 33.6 21.7 l -116.1 180.2 V 823 L 480 729.8 l -44.1 44.9 l -48.1 -45.6 l -63.2 57.7 l -54 -55.2 l -82.7 92.7 Z"  /><path d="M 545.5 360.4 a 133.6 229.5 0 1 0 267.2 0 a 133.6 229.5 0 1 0 -267.2 0 Z" fill="#62b5f9" /><path d="M 679.1 609.9 c -43.1 0 -82.8 -27.4 -111.8 -77.1 c -27 -46.4 -41.9 -107.6 -41.9 -172.3 s 14.9 -126 41.9 -172.3 c 29 -49.8 68.7 -77.1 111.8 -77.1 s 82.8 27.4 111.8 77.1 c 27 46.4 41.9 107.6 41.9 172.3 s -14.9 126 -41.9 172.3 c -29 49.7 -68.7 77.1 -111.8 77.1 Z m 0 -459 c -61.6 0 -113.6 95.9 -113.6 209.5 c 0 113.5 52 209.5 113.6 209.5 S 792.7 474 792.7 360.4 c 0 -113.5 -52.1 -209.5 -113.6 -209.5 Z"  /><path d="M 644.2 360.3 a 34.9 59.9 0 1 0 69.8 0 a 34.9 59.9 0 1 0 -69.8 0 Z" fill="#f65064" /><path d="M 679.1 440.2 c -16.5 0 -31.8 -10 -41.9 -27.5 c -8.3 -14.3 -12.9 -32.9 -12.9 -52.4 s 4.6 -38.1 12.9 -52.4 c 10.2 -17.5 25.4 -27.5 41.9 -27.5 s 31.8 10 41.9 27.5 c 8.3 14.3 12.9 32.9 12.9 52.4 s -4.6 38.1 -12.9 52.4 c -10.2 17.5 -25.5 27.5 -41.9 27.5 Z m 0 -119.7 c -0.9 0 -4.1 1.9 -7.4 7.6 c -4.8 8.2 -7.5 19.9 -7.5 32.3 s 2.7 24.1 7.5 32.3 c 3.3 5.7 6.4 7.6 7.4 7.6 s 4.1 -1.9 7.4 -7.6 c 4.8 -8.2 7.5 -19.9 7.5 -32.3 s -2.7 -24.1 -7.5 -32.3 c -3.4 -5.7 -6.5 -7.6 -7.4 -7.6 Z"  /><path d="M 295.9 391.2 v 185.4" fill="#f65064" /><path d="M 275.9 391.2 h 40 v 185.4 h -40 Z"  /><path d="M 305 301.6 L 294.8 360" fill="#f65064" /><path d="M 275.09 356.506 l 10.177 -58.317 l 39.404 6.876 l -10.177 58.317 Z"  /></svg>