<?xml version="1.0" standalone="no"?><!DOCTYPE svg PUBLIC "-//W3C//DTD SVG 1.1//EN" "http://www.w3.org/Graphics/SVG/1.1/DTD/svg11.dtd"><svg class="icon" width="200px" height="200.00px" viewBox="0 0 1024 1024" version="1.1" xmlns="http://www.w3.org/2000/svg"><path d="M700.1 892.4H330.4c-16.5 0-30-13.5-30-30V425.9c0-40.7 33.3-74 74-74h281.7c40.7 0 74 33.3 74 74v436.5c0 16.5-13.5 30-30 30z" fill="#FFECC5" /><path d="M700.1 912.4H330.4c-27.6 0-50-22.4-50-50V425.9c0-51.8 42.2-94 94-94h281.7c51.8 0 94 42.2 94 94v436.5c0 27.6-22.4 50-50 50zM374.4 371.9c-29.8 0-54 24.2-54 54v436.5c0 5.4 4.6 10 10 10h369.7c5.4 0 10-4.6 10-10V425.9c0-29.8-24.2-54-54-54H374.4z"  /><path d="M583.4 734.6H447c-11 0-20-9-20-20V529.7c0-11 9-20 20-20h136.4c11 0 20 9 20 20v184.8c0 11.1-9 20.1-20 20.1z" fill="#DBDBE1" /><path d="M583.4 754.6H447c-22.1 0-40-17.9-40-40V529.7c0-22.1 17.9-40 40-40h136.4c22.1 0 40 17.9 40 40v184.8c0 22.1-17.9 40.1-40 40.1zM447 714.5c0.1 0 0.1 0.1 0 0h136.4V529.6H447v184.9z"  /><path d="M429.8 663h76.1" fill="#DBDBE1" /><path d="M429.8 643h76v40h-76z"  /><path d="M429.8 581.3h76.1" fill="#DBDBE1" /><path d="M429.8 561.3h76v40h-76z"  /><path d="M623.5 444.1h106.4" fill="#DBDBE1" /><path d="M623.5 424.1h106.4v40H623.5z"  /><path d="M622 800.2h107.9" fill="#DBDBE1" /><path d="M622 780.2h107.9v40H622z"  /><path d="M467.9 333.2v-40.7c0-30 20-54.6 44.5-54.6s44.5 24.6 44.5 54.6v40.7" fill="#DBDBE1" /><path d="M576.8 333.2h-40v-40.7c0-18.4-11.4-34.6-24.5-34.6-13 0-24.5 16.2-24.5 34.6v40.7h-40v-40.7c0-41.1 28.9-74.6 64.5-74.6 35.5 0 64.5 33.5 64.5 74.6v40.7z"  /><path d="M512.3 237.9V117.4" fill="#DBDBE1" /><path d="M492.3 117.4h40v120.5h-40z"  /><path d="M627.4 162.7l-49.6-34.4H373.4v-40h216.9l59.9 41.5z"  /><path d="M695 260.4c0 19.8-16 35.8-35.8 35.8-19.8 0-35.8-16-35.8-35.8s34.2-68.8 34.2-68.8 37.4 49.1 37.4 68.8z" fill="#FFECC5" /><path d="M659.2 316.2c-30.7 0-55.8-25-55.8-55.8 0-7.6 2.1-21.3 19.8-51.8 8.9-15.3 17.6-27.9 18-28.4l15.7-22.5 16.6 21.8c0.4 0.5 10 13.1 19.6 28.4 19.3 30.4 21.7 44 21.7 52.5 0.2 30.8-24.8 55.8-55.6 55.8z m-0.8-88.5c-8.6 14.8-14.7 27.8-15 32.8 0 8.6 7.1 15.7 15.8 15.7 8.7 0 15.7-7 15.8-15.6-0.5-5.2-7.2-18.2-16.6-32.9z"  /></svg>