<?xml version="1.0" standalone="no"?><!DOCTYPE svg PUBLIC "-//W3C//DTD SVG 1.1//EN" "http://www.w3.org/Graphics/SVG/1.1/DTD/svg11.dtd"><svg t="1536288489063" class="icon" style="" viewBox="0 0 1024 1024" version="1.1" xmlns="http://www.w3.org/2000/svg" p-id="4831" xmlns:xlink="http://www.w3.org/1999/xlink" width="128" height="128"><defs><style type="text/css"></style></defs><path d="M383.104 156.8c-0.512-0.512-0.128 0.256 0 0z m162.048-62.464v13.44c0.128-0.384 0-4.224 0-13.44z m0 0" fill="#5386EC" p-id="4832"></path><path d="M119.04 755.584c0 26.112 74.88 50.176 196.48 63.232 121.6 13.056 271.36 13.056 392.96 0s196.48-37.12 196.48-63.232-74.88-50.176-196.48-63.232c-121.6-13.056-271.36-13.056-392.96 0S119.04 729.472 119.04 755.584z m0 0" fill="#ECF0F3" p-id="4833"></path><path d="M786.56 785.664H463.616c-17.28 0-31.488-14.208-31.488-31.488V328.832c0-17.28 14.208-31.488 31.488-31.488h322.944c17.28 0 31.488 14.208 31.488 31.488v425.344c0 17.408-14.208 31.488-31.488 31.488z m0 0" fill="#C8D9E9" p-id="4834"></path><path d="M754.944 431.232h-259.84c-4.352 0-7.936-3.584-7.936-7.936 0-4.352 3.584-7.936 7.936-7.936h259.968c4.352 0 7.936 3.584 7.936 7.936-0.128 4.352-3.712 7.936-8.064 7.936z m0 53.12h-259.84c-4.352 0-7.936-3.584-7.936-7.936 0-4.352 3.584-7.936 7.936-7.936h259.968c4.352 0 7.936 3.584 7.936 7.936-0.128 4.48-3.712 7.936-8.064 7.936z m0 53.248h-259.84c-4.352 0-7.936-3.584-7.936-7.936 0-4.352 3.584-7.936 7.936-7.936h259.968c4.352 0 7.936 3.584 7.936 7.936-0.128 4.352-3.712 7.936-8.064 7.936z m0 53.12h-259.84c-4.352 0-7.936-3.584-7.936-7.936 0-4.352 3.584-7.936 7.936-7.936h259.968c4.352 0 7.936 3.584 7.936 7.936-0.128 4.48-3.712 7.936-8.064 7.936z m0 53.248h-259.84c-4.352 0-7.936-3.584-7.936-7.936 0-4.352 3.584-7.936 7.936-7.936h259.968c4.352 0 7.936 3.584 7.936 7.936-0.128 4.352-3.712 7.936-8.064 7.936z m0 0" fill="#FFFFFF" p-id="4835"></path><path d="M431.232 717.44l354.176-2.688s-19.2 44.672 6.784 70.784l-357.376 0.128s-22.016-2.56-22.016-39.424c0-26.368 18.432-28.8 18.432-28.8z m0 0" fill="#AFC4D5" p-id="4836"></path><path d="M357.248 781.056c-3.968-3.712-9.856-4.224-15.36-3.584 0.64-6.528 2.048-20.864 3.072-36.736 1.28-21.76-0.128-55.424-0.128-55.424h-11.904s1.152 12.032-0.768 39.296c-1.28 17.024-3.968 45.312-4.864 57.088h-0.128l-0.896 10.752h33.28c-0.128 0.128 2.688-6.656-2.304-11.392z m54.4 0c-3.968-3.712-9.856-4.224-15.36-3.584 0.64-6.528 2.048-20.864 3.072-36.736 1.28-21.76-0.128-55.424-0.128-55.424h-11.904s1.152 12.032-0.768 39.296c-1.28 17.024-3.968 45.312-4.864 57.088h-0.128l-0.896 10.752h33.28c0 0.128 2.816-6.656-2.304-11.392z m-145.92-158.08s-9.728 98.304-6.016 112.256c1.792 6.912 6.144 7.936 9.344 6.144 3.584-2.048 5.12-7.296 5.248-11.904l3.328-106.496h-11.904z m197.76 0s9.728 98.304 6.016 112.256c-1.792 6.912-6.144 7.936-9.344 6.144-3.584-2.048-5.12-7.296-5.248-11.904l-3.328-106.496h11.904z m0 0" fill="#1FA3D9" p-id="4837"></path><path d="M490.496 612.864c-2.176 55.936-54.912 100.096-122.752 100.096-67.84 0-122.752-44.8-122.752-100.096 0-29.056 2.816-76.288 66.176-122.24 51.84-36.48 46.976-47.36 46.976-47.36 36.736 17.28 52.352 24.832 84.736 53.376 42.624 36.096 48.768 87.04 47.616 116.224z m0 0" fill="#1B98D4" p-id="4838"></path><path d="M490.496 612.864c-2.176 55.936-54.912 100.096-122.752 100.096-67.84 0-122.752-44.8-122.752-100.096 0-29.056 2.816-76.288 66.176-122.24 51.84-36.48 46.976-47.36 46.976-47.36 36.736 17.28 52.352 24.832 84.736 53.376 42.624 36.096 48.768 87.04 47.616 116.224z m0 0" fill="#1FA3D9" p-id="4839"></path><path d="M350.208 437.248c2.304 2.688 5.248 11.392-9.472 24.448-14.72 13.056-28.288 21.888-25.6 18.688 1.28-1.536 3.712-7.04 3.2-13.696-0.512-6.912-0.768-18.176 3.968-23.808 14.72-17.28 25.984-7.808 27.904-5.632z m0 0" fill="#F4AD29" p-id="4840"></path><path d="M373.504 557.568h-124.416c0.128 43.008 14.976 76.032 47.104 77.824 56.192 2.944 67.712-28.544 69.504-66.688h6.656c2.432 37.504 17.408 65.152 46.72 66.688 61.568 3.2 69.632-34.816 69.632-77.824h-115.2z m0 0" fill="#231815" p-id="4841"></path><path d="M416.512 557.568h-8.32l-28.544 45.952-0.128 0.256c1.024 2.688 2.304 5.248 3.584 7.68l0.256-0.512 33.152-53.376z m28.416 0h-19.456l-37.504 60.16-0.512 0.768c3.584 4.608 7.68 8.448 12.416 11.264l0.896-1.408 44.16-70.784z m0 0M294.016 557.568h-8.32l-28.544 45.952-0.128 0.256c1.024 2.688 2.304 5.248 3.584 7.68l0.256-0.512 33.152-53.376z m28.416 0h-19.456l-37.504 60.16-0.512 0.768c3.456 4.608 7.68 8.448 12.416 11.264l0.896-1.408 44.16-70.784z m0 0M515.328 677.632c16.256 14.08 38.784 18.432 59.136 11.52 20.352-7.04 35.456-24.448 39.552-45.568 4.096-21.12-3.456-42.88-19.712-56.96s-38.784-18.432-59.264-11.52c-20.352 7.04-35.456 24.448-39.552 45.568-3.968 20.992 3.456 42.752 19.84 56.96z m0 0" fill="#FFFFFF" p-id="4842"></path><path d="M600.32 671.616c-21.888 25.088-59.904 27.904-85.12 6.016-25.216-21.888-27.904-59.904-6.016-85.12" fill="#FFFFFF" p-id="4843"></path><path d="M495.36 630.656c2.432-33.152 31.36-58.112 64.512-55.68 33.152 2.432 58.112 31.36 55.68 64.512" fill="#FFFFFF" p-id="4844"></path><path d="M594.304 586.496c-25.216-21.888-63.232-19.072-85.12 6.016s-19.072 63.232 6.016 85.12 63.232 19.072 85.12-6.016c21.888-25.216 19.2-63.232-6.016-85.12z m-73.984 85.248c-21.888-19.072-24.192-52.224-5.248-74.112 19.072-21.888 52.224-24.192 74.112-5.248 21.888 19.072 24.192 52.224 5.248 74.112-18.944 21.888-52.096 24.192-74.112 5.248z m0 0" fill="#3F3F3F" p-id="4845"></path><path d="M511.616 664.064l11.776 10.24-58.752 67.584-11.776-10.24 58.752-67.584z m0 0" fill="#424242" p-id="4846"></path><path d="M300.032 532.864H293.12v-93.312h6.912v93.312z m-21.888-7.808h-6.912v-64.896h6.912v64.896z m-21.888 25.984h-6.912v-103.68h6.912v103.68z m0 0" fill="" p-id="4847"></path></svg>